<svg xmlns="http://www.w3.org/2000/svg" width="512" height="512" viewBox="0 0 512 512" version="1.1">
	<path d="M 234 146.237 C 231.522 147.545, 231.498 147.689, 231.224 162.692 L 230.949 177.827 233.974 179.982 C 236.990 182.129, 237 182.168, 237 191.953 L 237 201.770 231.395 202.470 C 222.779 203.546, 216.235 205.818, 212.731 208.949 C 210.108 211.293, 209.545 212.537, 209.545 215.995 C 209.545 219.574, 210.081 220.661, 213.165 223.348 C 215.155 225.081, 217.970 227.318, 219.419 228.317 L 222.054 230.134 221.777 244.296 L 221.500 258.457 214.600 263.602 C 204.953 270.794, 200.646 276.494, 196.787 287.171 C 194.510 293.473, 194.500 293.735, 194.500 347.888 C 194.500 400.679, 194.443 402.309, 192.559 403.388 C 186.382 406.925, 184.112 413.035, 187.335 417.443 C 188.606 419.182, 192.022 419.266, 258.895 419.207 C 311.807 419.161, 329.475 418.851, 330.560 417.950 C 332.068 416.698, 332.535 409.376, 331.235 407.362 C 330.831 406.737, 328.748 405.495, 326.606 404.603 L 322.712 402.982 323.402 353.741 C 324.191 297.541, 323.831 292.190, 318.541 281.425 C 315.204 274.636, 313.036 272.218, 300.577 261.391 L 297 258.283 297.015 244.891 C 297.024 237.526, 297.361 230.997, 297.765 230.381 C 298.169 229.766, 300.846 228.079, 303.714 226.632 C 309.794 223.566, 311 221.751, 311 215.669 C 311 209.567, 306.841 205.895, 297.083 203.382 L 290 201.557 290 183.213 C 290 172.480, 289.570 164.066, 288.965 162.934 C 287.693 160.558, 279.919 160.188, 278.070 162.416 C 277.249 163.405, 276.946 169.401, 277.066 182.320 C 277.160 192.488, 276.932 201.301, 276.559 201.904 C 275.546 203.543, 249.311 203.398, 248.712 201.750 C 248.461 201.063, 248.484 189.250, 248.763 175.500 C 249.240 151.895, 249.161 150.369, 247.345 148.151 C 244.996 145.283, 237.770 144.247, 234 146.237 M 258.354 145.692 C 257.174 145.923, 255.374 147.033, 254.354 148.159 C 252.696 149.989, 252.466 152.432, 252.176 171.240 C 251.998 182.809, 252.100 193.261, 252.402 194.466 C 253.580 199.159, 263.122 200.628, 266.826 196.686 C 268.916 194.460, 269 193.559, 269 173.251 C 269 161.634, 268.582 151.031, 268.071 149.688 C 267.533 148.272, 265.789 146.773, 263.922 146.123 C 262.151 145.505, 260.656 145.061, 260.601 145.136 C 260.545 145.211, 259.534 145.461, 258.354 145.692 M 84.250 178.487 C 82.101 180.041, 82 180.742, 82 194.147 L 82 208.180 85 210.813 C 87.923 213.378, 88 213.679, 88 222.606 C 88 232.723, 87.832 232.953, 80.432 232.986 C 75.325 233.009, 67.530 235.807, 64.964 238.538 C 63.222 240.392, 62.545 242.254, 62.545 245.190 C 62.545 248.655, 63.106 249.752, 66.273 252.490 L 70 255.712 70 267.201 C 70 280.064, 70.270 279.508, 61.625 284.446 C 51.911 289.995, 45.228 297.835, 40.783 308.895 C 38.595 314.339, 38.515 315.779, 38.015 359 L 37.500 403.500 34.096 404.600 C 29.902 405.956, 28 408.421, 28 412.500 C 28 419.417, 22.322 418.939, 105.952 419.059 C 177.129 419.161, 181.478 419.067, 182.702 417.392 C 185.680 413.321, 183.533 406.667, 178.574 404.595 L 175.077 403.134 174.788 357.317 L 174.500 311.500 171.285 304.931 C 167.280 296.746, 161.481 290.080, 153.870 284.912 L 148 280.925 148 268.916 L 148 256.907 151.126 255.203 C 158.057 251.427, 160 249.102, 160 244.585 C 160 239.155, 157.275 236.473, 149.362 234.114 L 143.500 232.367 143.845 213.934 C 144.235 193.072, 143.912 191.885, 137.783 191.711 C 131.138 191.522, 131 191.966, 131 213.587 C 131 231.687, 130.876 232.996, 129.066 233.965 C 126.282 235.454, 102.715 235.315, 101.200 233.800 C 100.330 232.930, 100 225.669, 100 207.411 C 100 184.575, 99.831 182.012, 98.186 179.982 C 95.772 177, 87.531 176.116, 84.250 178.487 M 105.861 178.910 C 103.531 180.795, 103.496 181.099, 103.195 202.373 C 102.987 217.092, 103.250 224.599, 104.026 226.048 C 104.650 227.215, 106.738 228.828, 108.666 229.634 C 113.047 231.464, 118.732 229.950, 119.860 226.652 C 120.264 225.468, 120.349 214.450, 120.048 202.167 C 119.542 181.565, 119.350 179.724, 117.559 178.417 C 114.778 176.387, 108.661 176.645, 105.861 178.910 M 382.495 179.414 C 380.111 181.798, 380.088 182.004, 380.670 195.664 C 381.252 209.323, 381.296 209.535, 384.169 212.229 C 387.007 214.892, 387.071 215.174, 386.789 223.728 L 386.500 232.496 380.536 233.239 C 366.886 234.939, 360 239.065, 360 245.544 C 360 248.537, 360.794 249.950, 364.500 253.552 L 369 257.925 369 268.963 C 369 281.381, 369.770 279.921, 359.071 287.779 C 351.962 292.998, 347.327 299.070, 343.818 307.761 L 341.500 313.500 341.786 357.371 L 342.072 401.241 338.036 404.967 C 335.816 407.016, 334 409.595, 334 410.697 C 334 414.766, 336.090 418.784, 338.441 419.233 C 343.444 420.190, 482.511 418.801, 483.750 417.783 C 485.067 416.700, 485.433 411.293, 484.377 408.539 C 484.034 407.646, 482.009 406.025, 479.877 404.937 L 476 402.959 475.979 360.230 C 475.958 318.053, 475.928 317.414, 473.626 310.893 C 469.783 300.008, 462.972 291.593, 452.420 284.693 L 447.500 281.476 447.219 269.239 L 446.938 257.002 451.429 253.837 C 460.726 247.283, 459.098 237.843, 448.179 235.003 C 445.606 234.334, 442.712 233.579, 441.750 233.326 C 440.160 232.907, 440 231.107, 440 213.633 C 440 200.007, 439.650 194.050, 438.800 193.200 C 437.136 191.536, 430.499 191.694, 429.057 193.432 C 428.212 194.449, 427.932 200.408, 428.089 214.027 C 428.267 229.571, 428.044 233.359, 426.904 234.080 C 426.132 234.569, 420.020 234.976, 413.321 234.985 C 403.491 234.997, 400.835 234.692, 399.547 233.404 C 398.135 231.992, 398.030 229.009, 398.631 207.483 L 399.311 183.158 396.233 180.079 C 392.205 176.051, 386.151 175.758, 382.495 179.414 M 405.315 177.960 C 401.394 179.624, 401 181.998, 401 203.980 C 401 225.061, 401.004 225.094, 403.455 227.545 C 406.624 230.715, 413.052 230.948, 416 228 C 417.878 226.122, 418 224.667, 418 204.111 C 418 184.746, 417.798 181.975, 416.250 180.080 C 414.275 177.663, 408.606 176.564, 405.315 177.960 M 233.250 212.662 C 232.563 212.940, 232 213.692, 232 214.333 C 232.001 215.194, 239.334 215.500, 260.001 215.500 C 280.336 215.500, 288 215.187, 288 214.357 C 288 213.728, 287.288 212.941, 286.418 212.607 C 284.532 211.883, 235.053 211.935, 233.250 212.662 M 86 245.500 C 86 246.794, 89.500 247, 111.500 247 C 133.500 247, 137 246.794, 137 245.500 C 137 244.206, 133.500 244, 111.500 244 C 89.500 244, 86 244.206, 86 245.500 M 383 245.500 C 383 246.794, 386.500 247, 408.500 247 C 430.500 247, 434 246.794, 434 245.500 C 434 244.206, 430.500 244, 408.500 244 C 386.500 244, 383 244.206, 383 245.500 M 231.178 258.234 L 231.500 260.500 259.822 260.766 L 288.143 261.031 287.822 258.766 L 287.500 256.500 259.178 256.234 L 230.857 255.969 231.178 258.234 M 226.637 271.500 C 224.718 273.150, 220.795 276.511, 217.921 278.968 C 208.118 287.349, 208.543 284.346, 208.210 347.595 C 207.970 393.308, 208.154 402.883, 209.292 403.827 C 211.291 405.486, 306.640 405.544, 308.636 403.887 C 309.848 402.881, 310.021 394.377, 309.782 347.601 L 309.500 292.500 306.893 286.941 C 305.052 283.017, 302.178 279.496, 297.116 274.964 L 289.947 268.545 260.037 268.522 L 230.127 268.500 226.637 271.500 M 95.250 276.735 C 79.773 277.057, 77.977 277.577, 81.200 280.800 C 82.622 282.222, 134.637 282.516, 136.848 281.115 C 137.590 280.645, 138.034 279.414, 137.836 278.380 C 137.505 276.653, 136.376 276.497, 123.988 276.459 C 116.569 276.436, 103.638 276.560, 95.250 276.735 M 405 276.714 C 391.525 276.876, 379.918 277.226, 379.207 277.490 C 378.231 277.853, 378.178 278.464, 378.992 279.985 C 380.034 281.931, 381.018 281.999, 407.785 281.985 C 423.674 281.976, 436.140 281.561, 437 281.013 C 438.158 280.275, 438.249 279.651, 437.399 278.278 C 436.130 276.230, 437.920 276.317, 405 276.714 M 256.607 282.302 C 255.341 283.568, 252.647 287.959, 250.620 292.060 L 246.935 299.516 247.218 341.088 L 247.500 382.660 250.505 387.580 C 254.472 394.074, 260.949 397.519, 267.222 396.470 C 272.969 395.510, 280.269 388.378, 282.034 381.998 C 282.938 378.729, 283.228 367.579, 283.095 341.198 C 282.933 309.010, 282.703 304.223, 281.062 298.950 C 279.004 292.340, 273.876 283.727, 270.654 281.470 C 267.261 279.093, 259.347 279.562, 256.607 282.302 M 77.168 290.089 C 69.688 291.642, 57.589 302.331, 53.637 310.878 C 51.576 315.335, 51.488 317.042, 51.175 358.807 C 50.930 391.379, 51.147 402.472, 52.047 403.557 C 53.063 404.781, 61.338 405, 106.647 405 L 160.050 405 161.116 402.250 C 161.812 400.454, 161.890 397.072, 161.341 392.500 L 160.500 385.500 117.500 385.500 C 79.941 385.500, 74.048 385.294, 70.927 383.875 C 66.383 381.808, 60.306 376.493, 58.505 373.010 C 56.594 369.315, 55.595 356.813, 56.467 347.509 C 57.120 340.541, 57.536 339.412, 60.777 335.825 C 62.749 333.642, 66.194 330.875, 68.432 329.678 C 72.412 327.547, 73.472 327.494, 117.661 327.203 C 156.529 326.947, 162.902 326.698, 163.393 325.418 C 164.351 322.921, 161.955 313.827, 158.724 307.697 C 155.387 301.367, 147.302 293.320, 141.524 290.578 C 138.267 289.033, 134.709 288.872, 109.182 289.120 C 93.407 289.273, 79 289.709, 77.168 290.089 M 378.088 290.134 C 376.762 290.641, 372.836 293.082, 369.364 295.559 C 362.872 300.192, 358.171 305.992, 356.186 311.819 C 354.979 315.364, 354.333 402.111, 355.500 404 C 355.899 404.646, 374.795 405, 408.937 405 C 467.509 405, 464.396 405.379, 463.815 398.320 L 463.500 394.500 418.920 394 L 374.339 393.500 369.446 390.474 C 366.415 388.599, 363.401 385.584, 361.526 382.552 C 358.631 377.869, 358.500 377.173, 358.500 366.505 C 358.500 356.081, 358.675 355.090, 361.184 351.298 C 362.870 348.750, 365.658 346.361, 368.684 344.871 C 373.475 342.512, 373.725 342.497, 417.201 342 C 448.381 341.643, 461.234 341.168, 462.059 340.342 C 462.850 339.550, 463.096 335.438, 462.837 327.342 C 462.479 316.126, 462.279 315.167, 459.062 309.197 C 455.237 302.099, 447.623 294.624, 440.748 291.215 C 436.256 288.987, 435.430 288.933, 408.319 289.071 C 393.019 289.150, 379.415 289.628, 378.088 290.134 M 136.655 307.829 C 132.818 312.068, 135.879 319, 141.588 319 C 144.773 319, 149 315.252, 149 312.427 C 149 306.891, 140.402 303.689, 136.655 307.829 M 271.548 308.250 C 271.334 308.938, 270.873 321.705, 270.523 336.621 C 269.948 361.127, 270.044 363.803, 271.516 364.368 C 272.412 364.712, 274.012 364.529, 275.072 363.961 C 276.902 362.982, 277 361.571, 277 336.165 C 277 309.042, 276.739 307, 273.269 307 C 272.536 307, 271.762 307.563, 271.548 308.250 M 288.557 316.223 C 286.513 319.140, 286.590 320.209, 289.073 323.365 C 292.656 327.921, 300 325.725, 300 320.098 C 300 314.382, 291.793 311.603, 288.557 316.223 M 437.073 316.635 C 434.387 320.049, 434.460 321.551, 437.455 324.545 C 442.206 329.297, 449 326.757, 449 320.228 C 449 314.164, 440.929 311.733, 437.073 316.635 M 228.223 325.557 C 224.151 328.408, 226.001 333, 231.221 333 C 233.294 333, 234.359 332.306, 235.235 330.383 C 236.288 328.072, 236.155 327.544, 234.103 325.883 C 231.289 323.603, 231.032 323.589, 228.223 325.557 M 441.974 331.049 C 440.209 334.347, 441.191 338.264, 444.204 339.948 C 446.699 341.342, 447.125 341.298, 449.704 339.379 C 453.088 336.862, 453.770 333.508, 451.425 330.918 C 449.023 328.263, 443.423 328.342, 441.974 331.049 M 223.212 338.990 C 213.719 343.299, 213.735 356.210, 223.241 362.005 C 229.081 365.566, 236.451 364.056, 240.912 358.385 C 243.855 354.643, 243.813 346.304, 240.832 342.514 C 238.471 339.512, 233.391 336.987, 229.782 337.022 C 228.527 337.034, 225.571 337.920, 223.212 338.990 M 72.212 340.124 C 66.223 343.089, 65 346.014, 65 357.374 C 65 366.091, 65.205 367.091, 67.573 369.904 C 71.877 375.019, 74.874 375.333, 112.492 374.612 C 153.514 373.825, 150.260 375.106, 150.838 359.507 C 151.293 347.215, 150.612 342.612, 147.944 339.944 C 146.093 338.093, 144.335 338, 111.250 338.001 C 77.845 338.002, 76.334 338.084, 72.212 340.124 M 287.400 338.739 C 283.578 341.382, 283.543 347.866, 287.337 350.523 C 293.914 355.130, 302.911 347.390, 298.256 341.130 C 296.818 339.197, 295.267 338.431, 292.400 338.239 C 290.255 338.096, 288.005 338.321, 287.400 338.739 M 158.176 340.224 C 157.370 341.030, 157 346.555, 157 357.770 L 157 374.139 159.250 373.820 C 161.464 373.505, 161.504 373.240, 161.774 357.392 C 161.988 344.841, 161.751 341.038, 160.700 340.166 C 159.703 339.338, 159.047 339.353, 158.176 340.224 M 78.286 342.681 C 77.069 342.928, 74.706 344.406, 73.036 345.966 C 70.171 348.643, 70 349.229, 70 356.385 C 70 363.351, 70.238 364.234, 72.918 367.234 L 75.836 370.500 109.505 370.500 L 143.173 370.500 145.443 367.861 C 150.127 362.415, 149.569 349.764, 144.432 344.935 L 141.842 342.500 111.171 342.366 C 94.302 342.292, 79.504 342.434, 78.286 342.681 M 127 354 C 124.138 356.862, 124.301 362.995, 127.314 365.826 C 130.488 368.808, 134.366 368.622, 136.927 365.365 C 142.830 357.861, 133.649 347.351, 127 354 M 376.462 353.064 C 374.792 353.550, 372.121 355.309, 370.526 356.973 C 368.174 359.428, 367.549 361.087, 367.209 365.781 C 366.682 373.079, 368.715 378.246, 373.190 380.974 C 376.344 382.897, 378.158 382.993, 411.628 382.996 C 443.062 383, 446.899 382.826, 448.125 381.349 C 449.051 380.233, 449.611 376.040, 449.854 368.410 C 450.203 357.409, 450.147 357.056, 447.651 354.561 L 445.091 352 412.295 352.090 C 394.258 352.140, 378.133 352.578, 376.462 353.064 M 456.644 355.198 C 456.305 356.464, 456.021 363.238, 456.014 370.250 C 455.999 383.676, 456.375 384.640, 460.453 381.658 C 461.957 380.558, 462.373 378.523, 462.753 370.408 C 463.300 358.706, 462.288 353.633, 459.321 353.198 C 457.877 352.986, 457.076 353.584, 456.644 355.198 M 398.767 355.962 L 377.034 356.500 373.943 359.593 C 369.850 363.689, 369.084 369.207, 371.969 373.810 C 375.676 379.725, 377.475 380, 412.513 380 L 444.091 380 446.652 377.439 C 449.033 375.058, 449.186 374.349, 448.831 367.331 C 448.489 360.552, 448.167 359.541, 445.669 357.392 C 442.559 354.716, 445.467 354.805, 398.767 355.962 M 378.557 363.223 C 376.435 366.252, 376.603 369.225, 379.073 372.365 C 384.193 378.875, 391.927 372.547, 388.595 364.573 C 387.287 361.442, 386.670 361, 383.608 361 C 381.130 361, 379.660 361.647, 378.557 363.223 M 289.655 366.829 C 287.458 369.256, 287.550 374.283, 289.829 376.345 C 292.565 378.821, 298.535 378.502, 300.443 375.777 C 303.966 370.748, 301.116 365, 295.098 365 C 292.698 365, 290.703 365.670, 289.655 366.829 M 439 368.917 C 439 370.521, 439.563 372.030, 440.250 372.269 C 442.576 373.081, 444 371.799, 444 368.893 C 444 366.474, 443.591 366, 441.500 366 C 439.405 366, 439 366.472, 439 368.917 M 144.057 387.943 C 142.926 389.074, 142 390.429, 142 390.953 C 142 393.405, 144.519 396.972, 146.966 397.986 C 152.830 400.415, 157.971 394.617, 154.872 389.069 C 152.931 385.594, 147.022 384.978, 144.057 387.943" stroke="none" fill="black" fill-rule="evenodd"/>
</svg>