<svg xmlns="http://www.w3.org/2000/svg" width="512" height="512" viewBox="0 0 512 512" version="1.1">
	<path d="M 236 27.103 C 201.284 31.006, 161.546 45.607, 132.500 65.132 C 90.463 93.390, 61.327 130.116, 44.146 176.500 C 24.874 228.533, 24.331 284.436, 42.618 333.864 C 65.793 396.504, 113.705 444.608, 176.500 468.285 C 220.101 484.724, 267.946 487.037, 313.827 474.923 C 342.222 467.426, 368.840 454.443, 393.512 436.057 C 406.626 426.285, 428.743 404.140, 438.394 391.119 C 471.886 345.933, 487.409 290.965, 481.957 236.856 C 477.624 193.863, 459.064 147.778, 432.808 114.820 C 384.706 54.440, 305.769 19.259, 236 27.103 M 231.500 43.079 C 206.898 46.435, 176.203 57.553, 150.775 72.319 C 101.173 101.122, 65.557 148.598, 51.371 204.822 C 46.757 223.108, 44.997 237.929, 45.018 258.301 C 45.039 277.814, 46.643 291.161, 50.944 307.609 C 56.351 328.283, 68.480 355.708, 80.183 373.719 C 111.658 422.160, 162.144 455.100, 222 466.248 C 238.348 469.293, 273.120 469.262, 290 466.186 C 342.755 456.575, 390.553 428.074, 423.157 386.787 C 442.512 362.277, 457.892 327.687, 464.101 294.706 C 467.400 277.182, 467.855 248.722, 465.137 229.977 C 458.347 183.152, 438.425 141.183, 408.012 109.632 C 377.022 77.482, 335.830 54.731, 291.781 45.436 C 281.413 43.248, 276.307 42.788, 259 42.484 C 247.725 42.286, 235.350 42.554, 231.500 43.079 M 232 49.030 C 184.520 55.580, 139.241 79.074, 106.651 114.071 C 72.224 151.040, 52.838 195.781, 49.012 247.096 C 44.374 309.314, 74.486 376.895, 125 417.637 C 167.235 451.701, 218.543 468.205, 269.349 464.069 C 305.883 461.096, 336.963 450.447, 368 430.271 C 388.734 416.793, 411.109 396.154, 424.170 378.460 C 463.289 325.466, 474.234 258.161, 453.841 196 C 442.290 160.791, 427.056 135.868, 401.564 110.480 C 371.711 80.748, 334.780 60.994, 291 51.342 C 281.224 49.186, 276.428 48.756, 259 48.470 C 247.725 48.285, 235.575 48.537, 232 49.030 M 227 71.432 C 174.319 80.906, 128.315 110.818, 100.017 154 C 75.779 190.987, 64.787 238.756, 70.495 282.300 C 75.146 317.784, 91.325 353.504, 115.154 380.900 C 136.061 404.936, 168.241 425.938, 200.354 436.506 C 222.088 443.658, 227.959 444.505, 255.500 444.465 C 276.597 444.435, 280.753 444.158, 289.857 442.175 C 327.700 433.931, 363.020 414.826, 389.364 388.349 C 415.839 361.739, 433.163 328.581, 440.224 291 C 443.078 275.811, 443.302 244.729, 440.667 229.500 C 435.644 200.474, 426.162 175.864, 411.192 152.995 C 385.303 113.446, 340.611 83.744, 290.500 72.785 C 278.687 70.201, 238.595 69.347, 227 71.432 M 251.321 102.972 C 219.601 103.477, 218.018 103.592, 215.321 105.602 C 209.509 109.933, 209.768 116.579, 215.911 120.719 C 218.761 122.639, 220.610 123, 227.609 123 C 238.988 123, 240 124.077, 240 136.189 C 240 148.940, 239.918 148.997, 221.750 149.010 C 208.929 149.019, 206.999 149.253, 202.500 151.353 C 196.968 153.934, 190.405 160.537, 189.403 164.529 C 187.687 171.369, 191.403 178.564, 198.402 181.953 C 202.095 183.740, 203.822 183.971, 209.292 183.411 C 215.201 182.806, 215.894 182.933, 216.897 184.807 C 217.601 186.124, 218 194.507, 218 208.011 L 218 229.154 215.250 231.871 C 213.738 233.365, 208.900 236.535, 204.500 238.915 C 192.855 245.214, 168.830 261.442, 165.133 265.504 C 162.036 268.907, 161.751 269, 154.430 269 C 147.778 269, 146.625 269.284, 144.455 271.455 C 142.791 273.118, 142 275.028, 142 277.382 C 142 282.373, 145.639 285, 152.552 285 C 155.857 285, 158.011 285.468, 158.309 286.250 C 158.571 286.938, 158.556 295.150, 158.277 304.500 L 157.768 321.500 154.278 324.797 C 151.185 327.717, 150.875 328.459, 151.561 331.297 C 151.987 333.059, 152.372 340.053, 152.418 346.840 C 152.496 358.650, 152.399 359.261, 150.139 361.090 C 148.360 362.530, 146.187 363, 141.312 363 C 135.499 363, 134.551 363.295, 131.923 365.923 C 130.315 367.531, 129 369.590, 129 370.500 C 129 371.410, 130.315 373.469, 131.923 375.077 L 134.846 378 165.923 378 C 195.667 378, 197.086 377.914, 199 376 C 201.780 373.220, 201.576 368.485, 198.545 365.455 C 196.485 363.394, 195.128 363, 190.093 363 C 183.016 363, 179.633 361.685, 178.110 358.343 C 176.724 355.300, 176.632 335.346, 178 334.500 C 178.550 334.160, 179 332.387, 179 330.560 C 179 327.888, 178.266 326.686, 175.250 324.422 C 173.188 322.873, 171.169 321.132, 170.765 320.553 C 170.361 319.974, 170.024 311.738, 170.015 302.250 L 170 285 254 285 L 338 285 338 302.537 L 338 320.075 333.500 324.448 C 331.025 326.854, 329 329.131, 329 329.510 C 329 329.888, 329.717 331.708, 330.592 333.553 C 331.817 336.135, 332.106 339.324, 331.842 347.376 C 331.533 356.828, 331.265 358.094, 329.076 360.422 C 327.004 362.625, 325.797 363, 320.776 363 C 314.581 363, 309.659 364.840, 308.621 367.545 C 307.448 370.602, 308.003 374.003, 310 376 C 311.915 377.915, 313.333 378, 343.277 378 C 378.826 378, 379 377.966, 379 371.016 C 379 365.293, 375.658 363, 367.320 363 C 361.807 363, 360.557 362.648, 358.398 360.488 C 355.937 358.028, 355.894 357.728, 356.295 345.738 C 356.520 339.007, 357.040 332.307, 357.450 330.848 C 358.222 328.102, 357.081 326.353, 352.332 323 C 350.345 321.597, 350.165 320.321, 349.540 303.250 L 348.872 285 358.436 285 C 366.667 285, 368.279 284.721, 370 283 C 372.874 280.126, 372.655 274.564, 369.545 271.455 C 367.282 269.191, 366.347 269, 357.539 269 C 348.490 269, 347.869 268.863, 345.743 266.396 C 344.510 264.964, 333.227 256.818, 320.672 248.292 C 305.928 238.281, 297.165 231.678, 295.926 229.646 C 294.208 226.828, 294.007 224.458, 294.004 206.941 C 293.999 183.173, 293.804 183.638, 303.648 183.887 C 311.609 184.088, 315.644 182.113, 319.815 175.976 C 321.755 173.122, 322.103 171.559, 321.756 167.240 C 321.225 160.624, 317.444 155.629, 310.028 151.750 C 304.985 149.112, 304.172 149, 290.021 149 C 276.612 149, 275.030 148.811, 272.635 146.927 C 270.140 144.965, 270 144.381, 270 135.927 C 270 124.139, 271.215 122.697, 280.848 123.045 C 291.378 123.427, 292.785 123.167, 295.987 120.250 C 299.965 116.625, 300.676 112.461, 298.038 108.225 C 294.407 102.394, 293.569 102.300, 251.321 102.972 M 231.667 192.667 C 231.300 193.033, 230.980 200.796, 230.956 209.917 C 230.888 235.915, 230.241 237.586, 217.482 244.723 C 201.786 253.502, 179 267.399, 179 268.192 C 179 268.637, 191.770 269, 207.378 269 C 232.013 269, 235.928 268.792, 237.066 267.421 C 238.779 265.357, 239.637 197.058, 237.988 193.978 C 236.974 192.082, 233.062 191.271, 231.667 192.667 M 275.293 192.798 C 274.405 193.362, 273.930 203.011, 273.498 229.238 C 272.921 264.237, 272.949 264.949, 274.955 266.955 C 276.906 268.906, 278.150 269, 301.941 269 C 320.122 269, 327.081 268.678, 327.616 267.812 C 328.035 267.134, 327.606 266.168, 326.617 265.562 C 315.672 258.858, 291.557 242.983, 288.234 240.293 C 281.357 234.726, 281 233.419, 281 213.772 C 281 199.708, 280.707 196.026, 279.443 194.223 C 277.763 191.824, 277.154 191.615, 275.293 192.798 M 191.667 290.667 C 190.557 291.776, 190.918 296.507, 192.250 298.307 C 192.938 299.237, 195.525 300.566, 198 301.262 C 201.848 302.343, 202.822 303.176, 204.720 307.013 C 205.941 309.481, 207.640 315.775, 208.496 321 C 209.353 326.225, 210.281 331.539, 210.560 332.809 C 210.839 334.078, 214.318 338.592, 218.290 342.840 C 222.262 347.088, 227.431 353.792, 229.775 357.738 C 232.119 361.684, 235.029 365.608, 236.241 366.456 C 238.020 367.703, 241.759 368, 255.641 368 C 265.098 368, 273.547 367.727, 274.415 367.394 C 275.283 367.061, 278.218 363.124, 280.937 358.644 C 283.762 353.988, 289.116 347.300, 293.435 343.030 C 301.710 334.848, 302.176 333.881, 304.529 320 C 305.414 314.775, 306.933 308.700, 307.903 306.500 C 309.409 303.086, 310.331 302.323, 314.196 301.291 C 319.497 299.875, 322.059 295.848, 320.049 292.091 C 318.932 290.004, 318.822 290, 255.631 290 C 220.818 290, 192.033 290.300, 191.667 290.667 M 231.200 298.200 C 229.517 299.883, 229.706 303.564, 231.571 305.429 C 233.952 307.809, 237.709 307.374, 239.592 304.500 C 241.109 302.184, 241.109 301.816, 239.592 299.500 C 237.807 296.776, 233.319 296.081, 231.200 298.200 M 266.956 301.553 C 265.032 303.871, 265.357 309.057, 267.524 310.642 C 272.057 313.956, 278.786 310.267, 277.506 305.169 C 277.139 303.707, 276.370 301.946, 275.797 301.256 C 274.335 299.493, 268.503 299.690, 266.956 301.553" stroke="none" fill="#009779" fill-rule="evenodd"/></svg>