<svg xmlns="http://www.w3.org/2000/svg" width="512" height="512" viewBox="0 0 512 512" version="1.1">
	<path d="M 236.500 24.616 C 211.486 28.202, 201.694 30.422, 183.878 36.545 C 169.755 41.399, 141.703 55.353, 129.353 63.668 C 41.781 122.627, 3.913 232.235, 37.167 330.500 C 43.359 348.799, 45.253 351.540, 49.962 349.020 C 52.861 347.469, 52.537 344.782, 47.997 332.737 C 38.605 307.811, 34.617 285.366, 34.631 257.500 C 34.645 228.785, 39.553 202.440, 49.624 177.026 C 78.906 103.134, 138.847 53.573, 219.867 36.265 C 231.676 33.743, 234.130 33.567, 257.500 33.567 C 281.014 33.567, 283.270 33.731, 295.460 36.332 C 324.138 42.450, 351.543 53.879, 375.504 69.714 C 390.768 79.802, 402.739 89.818, 416.040 103.628 C 428.428 116.491, 436.968 127.710, 446.191 143.236 C 449.871 149.431, 453.706 155.850, 454.712 157.500 C 456.086 159.753, 457.284 160.500, 459.521 160.500 C 463.887 160.500, 463.931 156.796, 459.666 148.340 C 447.482 124.184, 423.070 94.872, 398.454 74.841 C 369.639 51.394, 331.745 33.726, 295.524 26.850 C 286.831 25.200, 279.743 24.697, 262 24.472 C 249.625 24.314, 238.150 24.379, 236.500 24.616 M 311.491 63.865 C 307.148 65.838, 301.612 71.497, 300.453 75.148 C 299.922 76.820, 300.216 77.703, 301.556 78.463 C 306.791 81.435, 308 83.684, 308 90.455 C 308 94.055, 308.176 97, 308.391 97 C 308.606 97, 310.743 96.110, 313.141 95.022 C 315.538 93.934, 318.400 93.066, 319.500 93.092 C 320.600 93.119, 319.025 94.080, 316 95.230 C 310.196 97.434, 304.739 97.749, 293.892 96.506 L 287.284 95.749 283.271 99.374 C 278.221 103.937, 277.591 103.947, 244.500 100 C 215.240 96.510, 213.156 96.437, 209.074 98.750 L 205.986 100.500 202.417 96.737 C 197.211 91.246, 193.647 89.699, 187.401 90.217 C 180.945 90.752, 176.031 93.840, 171.960 99.921 C 168.046 105.768, 168.137 108.293, 172.349 110.779 C 176.038 112.955, 176.969 115.983, 176.989 125.867 C 176.999 130.962, 177.114 131.199, 179.250 130.565 C 185.539 128.695, 188.871 128.795, 193.254 130.984 L 197.703 133.206 200.306 130.603 C 203.665 127.244, 209.382 126.976, 211.054 130.100 C 211.952 131.778, 212.814 132.089, 215.339 131.643 C 217.078 131.336, 228.625 129.940, 241 128.542 C 253.375 127.143, 266.993 125.470, 271.263 124.824 C 278.949 123.662, 279.052 123.675, 281.763 126.211 C 286.983 131.095, 290.415 132.159, 299.828 131.816 L 308.500 131.500 308.795 137.078 L 309.090 142.657 305.061 143.864 C 302.845 144.527, 300.534 146.003, 299.924 147.143 C 298.013 150.713, 299.964 151.326, 309.295 150.084 C 317.124 149.042, 334.499 149.954, 337.067 151.542 C 337.504 151.812, 338.147 151.571, 338.495 151.007 C 339.753 148.973, 337.777 145.927, 333.927 143.963 C 330.361 142.143, 330 141.597, 330 138.019 C 330 135.229, 330.657 133.457, 332.250 131.952 C 335.895 128.508, 341.634 126, 345.871 126 C 349.823 126, 352.082 127.760, 355.647 133.616 C 356.558 135.113, 357.165 135.278, 358.605 134.418 C 361.464 132.708, 362.233 127.512, 361.771 113 C 361.333 99.219, 360.075 94, 357.193 94 C 356.376 94, 353.490 96.075, 350.779 98.610 C 345.146 103.879, 343.843 103.943, 334.590 99.413 C 329.797 97.066, 329.156 96.377, 328.615 92.994 C 327.642 86.908, 328.885 83.254, 333.180 79.578 C 336.487 76.747, 336.992 75.815, 336.429 73.571 C 335.586 70.215, 330.546 65.126, 326.312 63.357 C 321.864 61.499, 316.279 61.690, 311.491 63.865 M 290.961 101.750 C 290.424 112.065, 290.550 123.905, 291.211 125.250 C 291.813 126.475, 293.252 127, 296.012 127 C 302.055 127, 303.280 124.400, 302.847 112.489 C 302.588 105.359, 302.118 102.684, 301 101.978 C 299.222 100.855, 291.017 100.669, 290.961 101.750 M 330 114.441 C 330 119.480, 330.411 123, 331 123 C 331.583 123, 332 119.686, 332 115.059 C 332 110.691, 331.550 106.840, 331 106.500 C 330.363 106.106, 330 108.990, 330 114.441 M 195 115.500 C 195 119.833, 195.422 123, 196 123 C 196.578 123, 197 119.833, 197 115.500 C 197 111.167, 196.578 108, 196 108 C 195.422 108, 195 111.167, 195 115.500 M 203.393 109.582 C 203.727 110.452, 204.049 113.039, 204.110 115.332 L 204.219 119.500 205.110 115 C 206.074 110.129, 205.713 108, 203.924 108 C 203.297 108, 203.059 108.710, 203.393 109.582 M 210 109.785 C 210 114.063, 209.493 114.001, 244.357 113.985 C 275.881 113.970, 281.936 113.478, 279.492 111.131 C 278.054 109.751, 210 108.433, 210 109.785 M 335.667 110.667 C 333.779 112.554, 335.870 113.047, 344.669 112.786 C 351.302 112.590, 354.468 112.108, 354.752 111.250 C 355.064 110.309, 352.838 110, 345.750 110 C 340.571 110, 336.033 110.300, 335.667 110.667 M 312 130.417 C 309.653 131.787, 309.845 131.842, 315.139 131.310 C 319.267 130.895, 321.656 131.181, 324.052 132.376 C 328.090 134.390, 329.110 133.773, 325.572 131.455 C 322.018 129.127, 315.115 128.599, 312 130.417 M 179.679 132.464 C 178.630 133.512, 178 135.749, 178 138.420 C 178 142.426, 177.753 142.808, 174.087 144.461 C 170.261 146.186, 168.593 148.723, 169.897 150.834 C 170.351 151.568, 171.910 151.576, 175.025 150.861 C 179.542 149.824, 197.166 150.265, 202.250 151.542 C 204.732 152.166, 205 151.975, 205 149.583 C 205 147.614, 204.100 146.402, 201.500 144.867 C 198.457 143.072, 198 142.296, 198 138.924 C 198 133.938, 194.925 131.767, 187.057 131.198 C 182.659 130.880, 180.974 131.169, 179.679 132.464 M 314.250 139.491 C 312.462 140.268, 311.002 141.038, 311.005 141.202 C 311.007 141.366, 314.655 141.504, 319.111 141.509 L 327.213 141.518 323.357 139.785 C 318.724 137.704, 318.387 137.693, 314.250 139.491 M 183.123 140.388 C 180.982 141.576, 181.463 141.706, 188 141.706 C 194.537 141.706, 195.018 141.576, 192.877 140.388 C 191.569 139.664, 189.375 139.071, 188 139.071 C 186.625 139.071, 184.431 139.664, 183.123 140.388 M 76.230 150.250 C 70.962 159.504, 67.172 168.030, 60.967 184.589 C 51.784 209.092, 47.891 230.773, 47.873 257.500 C 47.861 275.865, 49.294 287.641, 53.591 304.500 C 56.295 315.110, 64.648 337.316, 67.979 342.750 L 69.971 346 81.485 346 C 90.033 346, 92.999 345.678, 92.996 344.750 C 92.993 344.063, 91.617 341.475, 89.938 339 C 84.759 331.368, 76.398 313.975, 73.112 304 C 59.855 263.750, 63.361 218.742, 82.848 179.017 C 88.646 167.197, 94.218 161.006, 99.079 160.985 C 104.890 160.959, 105.688 159.493, 100.929 157.588 C 98.601 156.657, 93.691 152.993, 90.018 149.447 C 86.345 145.901, 82.669 143, 81.848 143 C 81.028 143, 78.499 146.262, 76.230 150.250 M 424.213 148.867 C 420.970 152.120, 416.055 155.793, 413.182 157.111 C 410.332 158.419, 408 159.828, 408 160.244 C 408 160.660, 409.739 161, 411.865 161 C 417.014 161, 420.051 163.553, 425.187 172.199 C 433.706 186.537, 441.299 209.688, 444.522 231.146 C 447.355 250.008, 445.989 278.990, 441.394 297.500 C 438.491 309.194, 434.686 319.653, 428.879 331.894 C 425.646 338.710, 423 344.688, 423 345.177 C 423 345.667, 427.825 345.940, 433.721 345.784 L 444.443 345.500 448.155 337 C 458.377 313.601, 463.036 290.577, 463.738 260 C 464.280 236.395, 463.149 224.831, 458.358 205 C 452.471 180.632, 435.831 143, 430.942 143 C 430.457 143, 427.429 145.640, 424.213 148.867 M 305.459 152.007 C 291.475 154.549, 277.980 161.450, 271.843 169.198 L 268.657 173.221 266.783 169.568 C 261.726 159.712, 247.915 159.530, 241.995 169.241 C 239.887 172.697, 239.370 176.612, 240.948 177.167 C 241.470 177.350, 242.029 181.231, 242.191 185.792 C 242.525 195.200, 242.036 194.748, 252.500 195.304 L 258.500 195.622 251.763 195.811 C 245.183 195.996, 244.995 196.075, 243.637 199.250 C 242.872 201.037, 239.499 205.092, 236.140 208.259 C 230.954 213.150, 227.754 218.239, 229.130 219.408 C 229.333 219.581, 239.512 220.011, 251.750 220.364 C 272.870 220.972, 274 220.912, 274 219.177 C 274 218.171, 272.814 216.258, 271.364 214.924 C 268.300 212.105, 263 205.089, 263 203.850 C 263 202.650, 274.748 202.802, 279.281 204.061 C 281.360 204.639, 285.995 206.951, 289.581 209.199 C 296.034 213.245, 296.098 213.329, 295.800 217.385 C 295.527 221.119, 295.100 221.690, 291 223.817 C 281.848 228.565, 277.602 235.211, 280.009 241.021 C 281.423 244.436, 287.574 247.699, 293.500 248.177 C 297.469 248.498, 297.502 248.471, 297.811 244.737 C 298.101 241.232, 297.909 240.932, 294.999 240.350 C 290.033 239.357, 292.755 238.193, 303 236.928 C 313.843 235.590, 335.395 236.277, 341.500 238.155 L 345.500 239.386 342 239.943 C 338.794 240.453, 338.474 240.816, 338.189 244.258 C 337.799 248.969, 339.067 249.543, 346.474 248.005 C 361.497 244.887, 361.218 232.888, 345.915 223.950 C 339.327 220.103, 339 219.737, 339.009 216.206 C 339.017 212.779, 339.466 212.211, 344.966 208.668 C 349.136 205.981, 352.868 204.501, 357.446 203.716 C 363.458 202.687, 364.058 202.353, 364.993 199.521 C 365.716 197.331, 367.232 195.876, 370.254 194.472 L 374.500 192.500 374.410 186.360 C 374.339 181.558, 373.714 179.188, 371.541 175.480 C 365.787 165.662, 355.547 158.352, 341.543 154.066 C 333.578 151.629, 313.764 150.498, 305.459 152.007 M 172 153.156 C 158.147 157.020, 146.960 163.311, 142.158 169.940 L 139.233 173.978 137.987 170.969 C 137.301 169.314, 135.436 166.862, 133.841 165.520 C 125.774 158.732, 112.462 163.440, 110.387 173.815 C 109.899 176.256, 110.173 176.920, 111.895 177.467 C 113.800 178.071, 114 178.882, 114 186 C 114 194.912, 113.765 194.677, 122.976 194.955 C 130.537 195.182, 130.722 196, 123.213 196 L 117.094 196 115.167 200.250 C 114.107 202.588, 110.711 207.118, 107.620 210.318 C 98.507 219.752, 98.803 219.998, 119.250 220.009 C 128.738 220.013, 138.863 220.301, 141.750 220.648 C 147.899 221.387, 148.362 220.474, 144.442 215.335 C 142.070 212.225, 142.015 211.928, 143.692 211.241 C 144.686 210.833, 149.200 210.500, 153.722 210.500 C 160.813 210.500, 162.242 210.797, 164.103 212.659 C 167.744 216.300, 166.092 219.377, 158.570 222.967 C 144.718 229.578, 141.964 240.433, 152.765 245.847 C 154.819 246.876, 158.412 248.012, 160.750 248.371 L 165 249.024 165 244.512 L 165 240 161.250 239.918 L 157.500 239.837 161 238.208 C 166.073 235.848, 203.588 235.884, 209.500 238.255 L 213.500 239.859 210.193 239.930 C 206.931 239.999, 206.889 240.059, 207.193 244.235 L 207.500 248.471 212 248.155 C 218.163 247.722, 224.738 244.669, 226.142 241.588 C 227.066 239.559, 226.954 238.168, 225.575 234.558 C 223.571 229.309, 220.163 226.169, 212.580 222.581 C 206.091 219.511, 205.611 218.885, 206.427 214.537 C 206.894 212.049, 207.702 211.041, 209.614 210.561 C 211.023 210.207, 213.374 208.776, 214.838 207.381 C 218.205 204.172, 221.150 203, 225.843 203 C 230.869 203, 234 200.662, 234 196.908 C 234 195.270, 234.726 192.822, 235.613 191.468 C 236.825 189.618, 237.128 187.277, 236.833 182.046 C 236.509 176.316, 235.911 174.328, 233.448 170.793 C 228.123 163.152, 214.149 155.304, 201.647 152.933 C 195.360 151.741, 176.569 151.882, 172 153.156 M 384.619 163.034 C 380.485 164.272, 377.146 167.780, 375.789 172.311 C 374.768 175.717, 374.837 176.408, 376.305 177.481 C 377.595 178.424, 378 180.262, 378 185.169 C 378 194.516, 378.872 195.326, 388.421 194.844 C 398.077 194.356, 399 193.393, 399 183.809 C 399 178.180, 399.283 177, 400.631 177 C 401.948 177, 402.148 176.300, 401.670 173.357 C 400.977 169.083, 397.793 165.293, 393.282 163.371 C 389.681 161.837, 388.741 161.800, 384.619 163.034 M 143.681 175.743 L 136.862 176.095 137.664 179.297 C 139.118 185.097, 138.386 189.987, 135.637 192.857 C 133.753 194.824, 133.342 195.910, 134.066 197.010 C 136.465 200.654, 142 188.753, 142 179.951 C 142 177.041, 142.076 177, 147.500 177 C 150.525 177, 153 176.550, 153 176 C 153 175.450, 152.438 175.088, 151.750 175.196 C 151.063 175.304, 147.431 175.550, 143.681 175.743 M 159.667 175.667 C 158.669 176.664, 158.935 181.766, 160.335 188.500 C 161.451 193.869, 161.841 194.500, 164.041 194.500 C 166.403 194.500, 166.512 194.211, 166.796 187.145 C 167.013 181.750, 166.674 179.151, 165.523 177.395 C 164.026 175.110, 161.090 174.243, 159.667 175.667 M 218.500 176.060 C 216.850 176.531, 213.363 177.187, 210.750 177.519 L 206 178.123 206 185.502 C 206 189.561, 206.393 193.125, 206.872 193.421 C 207.819 194.006, 208.971 188.466, 208.989 183.250 C 209 180.101, 209.131 179.999, 213.250 179.964 C 216.247 179.939, 218.384 179.203, 220.500 177.469 C 223.661 174.878, 223.369 174.671, 218.500 176.060 M 289.427 175.765 C 287.210 177.283, 287.046 180.189, 288.974 183.814 C 290.052 185.841, 291.200 189.215, 291.524 191.312 C 292.021 194.526, 292.458 195.075, 294.307 194.812 C 296.305 194.528, 296.526 193.847, 296.796 187.145 C 297.013 181.750, 296.674 179.151, 295.523 177.395 C 293.966 175.018, 291.486 174.355, 289.427 175.765 M 266.647 182.250 C 267.186 188.144, 267.041 188.721, 264.109 192.388 C 262.399 194.526, 261 196.663, 261 197.138 C 261 200.278, 266.664 193.593, 268.604 188.164 C 269.323 186.149, 269.932 183.046, 269.956 181.269 C 270.003 177.821, 270.685 177.432, 278 176.680 C 279.925 176.482, 278.029 176.248, 273.788 176.160 L 266.075 176 266.647 182.250 M 342.500 176.973 L 337.500 177.500 337.500 185.917 C 337.500 191.600, 337.892 194.464, 338.707 194.736 C 339.565 195.022, 339.998 192.879, 340.207 187.319 L 340.500 179.500 344.750 179.193 C 347.087 179.023, 349 178.487, 349 178.002 C 349 176.596, 347.830 176.410, 342.500 176.973 M 380.397 199.698 C 379.903 202.332, 377.876 205.340, 373.352 210.158 C 366.925 217, 365.985 218.719, 368.250 219.486 C 368.938 219.719, 378.613 220.043, 389.751 220.205 C 413.085 220.545, 413.019 220.577, 405.636 212.358 C 399.816 205.879, 396 200.137, 396 197.860 C 396 196.213, 395.147 196, 388.545 196 L 381.091 196 380.397 199.698 M 181 198.589 C 171.225 200.278, 166.864 201.459, 165.836 202.697 C 164.842 203.895, 165.083 204.017, 167.325 203.454 C 169.963 202.792, 170 202.853, 170 207.892 C 170 210.701, 170.113 213, 170.250 212.999 C 170.387 212.999, 173.741 212.322, 177.702 211.496 C 184.715 210.033, 195.074 210.556, 200.529 212.649 C 201.972 213.203, 202.208 212.985, 201.674 211.592 C 201.303 210.626, 201 208.298, 201 206.418 C 201 204.538, 200.550 203, 200 203 C 199.450 203, 198.999 204.238, 198.999 205.750 L 198.997 208.500 185.953 208.500 L 172.909 208.500 173.204 205.039 C 173.473 201.890, 173.860 201.500, 177.500 200.708 C 183.048 199.500, 196.735 200.487, 201.250 202.421 C 203.562 203.411, 205 203.619, 205 202.962 C 205 200.249, 188.646 197.269, 181 198.589 M 212.022 202.750 L 212.044 207.500 214 205 C 216.633 201.633, 216.633 198, 214 198 C 212.278 198, 212.003 198.659, 212.022 202.750 M 303.500 199.657 C 298.948 201.039, 293.417 204.750, 294.417 205.751 C 294.642 205.976, 295.914 205.447, 297.243 204.576 C 300.452 202.474, 300.992 203.274, 300.301 209.107 C 299.982 211.798, 299.953 214, 300.235 214 C 300.517 214, 302.595 213.348, 304.852 212.552 C 311.565 210.184, 319.841 209.702, 327.250 211.250 L 334 212.659 334 207.330 C 334 204.398, 334.196 202, 334.435 202 C 334.674 202, 336.063 202.454, 337.521 203.008 C 339.548 203.779, 340.077 203.720, 339.770 202.758 C 338.400 198.471, 314.217 196.404, 303.500 199.657 M 312 199.656 C 302.280 201.147, 303 200.667, 303 205.652 C 303 209.627, 303.225 210.114, 304.750 209.435 C 305.712 209.007, 312.012 208.462, 318.750 208.225 L 331 207.794 331 204.480 C 331 201.308, 330.783 201.119, 325.951 200.083 C 320.991 199.019, 316.956 198.896, 312 199.656 M 182.750 238.654 C 181.214 239.086, 181 240.545, 181 250.573 L 181 262 186.939 262 L 192.879 262 193.189 250.498 C 193.462 240.419, 193.299 238.996, 191.875 238.998 C 190.981 238.999, 188.956 238.811, 187.375 238.581 C 185.794 238.350, 183.713 238.383, 182.750 238.654 M 314.250 238.706 C 312.083 239.123, 312.001 239.533, 312.015 249.820 C 312.024 255.694, 312.404 261.088, 312.860 261.808 C 313.420 262.690, 315.447 263.015, 319.095 262.808 L 324.500 262.500 324.781 250.875 C 325.055 239.509, 325.010 239.236, 322.781 238.638 C 320.348 237.987, 317.882 238.006, 314.250 238.706 M 167.195 243.750 C 167.497 248.454, 167.534 248.500, 171 248.500 C 174.466 248.500, 174.503 248.454, 174.805 243.750 L 175.110 239 171 239 L 166.890 239 167.195 243.750 M 197.714 239.619 C 197.321 240.012, 197 242.058, 197 244.167 C 197 247.977, 197.024 248, 201.031 248 C 205.618 248, 206.852 246.336, 205.384 242.133 C 204.706 240.194, 203.669 239.422, 201.446 239.203 C 199.786 239.039, 198.107 239.227, 197.714 239.619 M 300.714 239.619 C 300.321 240.012, 300 242.058, 300 244.167 C 300 247.981, 300.020 248, 304.057 248 L 308.115 248 307.807 243.750 C 307.524 239.828, 307.265 239.477, 304.464 239.203 C 302.794 239.039, 301.107 239.227, 300.714 239.619 M 328.436 241.398 C 328.105 242.717, 327.984 244.855, 328.167 246.148 C 328.453 248.170, 329.062 248.500, 332.500 248.500 C 336.298 248.500, 336.516 248.333, 336.818 245.185 C 337.216 241.043, 335.590 239, 331.897 239 C 329.714 239, 328.896 239.567, 328.436 241.398 M 480.348 255.050 C 478.415 255.780, 478.131 256.858, 477.550 265.681 C 475.977 289.549, 471.998 309.560, 464.407 331.783 C 459.057 347.446, 459.010 349.500, 464 349.500 L 467.500 349.500 471.688 338 C 479.988 315.212, 486 284.538, 486 264.984 C 486 255.298, 484.883 253.335, 480.348 255.050 M 175.389 265.430 C 174.393 268.025, 175.788 270.169, 178.246 269.820 C 179.898 269.585, 180.500 268.833, 180.500 267 C 180.500 265.167, 179.898 264.415, 178.246 264.180 C 176.893 263.988, 175.750 264.488, 175.389 265.430 M 191.046 265.444 C 189.221 267.644, 190.508 270, 193.535 270 C 195.777 270, 196.090 269.625, 195.816 267.259 C 195.455 264.125, 192.936 263.167, 191.046 265.444 M 307.709 264.624 C 307.319 265.014, 307 266.413, 307 267.733 C 307 269.761, 307.426 270.084, 309.750 269.816 C 311.932 269.565, 312.500 268.984, 312.500 267 C 312.500 265.245, 311.891 264.413, 310.459 264.208 C 309.336 264.047, 308.099 264.235, 307.709 264.624 M 323.667 264.667 C 323.300 265.033, 323 266.383, 323 267.667 C 323 269.497, 323.546 270, 325.531 270 C 326.924 270, 328.324 269.319, 328.643 268.487 C 329.680 265.786, 325.645 262.689, 323.667 264.667 M 140.146 274.789 L 130.792 275.078 131.419 278.417 C 131.954 281.274, 131.514 282.389, 128.371 286.128 C 123.645 291.752, 120.979 297.799, 120.292 304.458 C 119.158 315.444, 123.544 324.802, 133.016 331.607 C 137.939 335.143, 138 335.254, 138 340.594 L 138 346 180.353 346 C 203.648 346, 225.435 346.285, 228.771 346.634 L 234.835 347.268 234.291 341.276 C 233.696 334.707, 233.335 335.250, 241.969 329.694 C 243.877 328.467, 246.765 325.316, 248.386 322.693 C 250.828 318.743, 251.415 316.552, 251.797 309.945 C 252.354 300.317, 250.888 295.785, 244.335 286.883 C 240.900 282.217, 239.982 280.207, 240.444 278.366 C 240.827 276.843, 240.580 275.803, 239.775 275.540 C 238.210 275.030, 153.116 274.388, 140.146 274.789 M 266.417 278.407 C 266.977 281.394, 266.557 282.390, 263.014 286.484 C 257.208 293.192, 255.735 296.600, 255.228 304.500 C 254.464 316.389, 258.068 324.478, 267.241 331.466 C 272.472 335.451, 273.743 338.429, 272.156 342.982 L 271.104 346 318.052 346.167 C 343.873 346.258, 365.788 346.371, 366.750 346.417 C 368.258 346.488, 368.453 345.718, 368.160 340.848 L 367.820 335.196 373.296 331.151 C 379.673 326.440, 382.173 322.753, 384.531 314.583 C 387.421 304.571, 384.508 292.792, 377.450 285.952 C 374.396 282.992, 374.099 282.235, 374.645 278.820 L 375.256 275 320.517 275 L 265.777 275 266.417 278.407 M 143 285.883 C 143 286.633, 228.847 288.122, 229.850 287.389 C 230.043 287.248, 229.904 286.653, 229.541 286.067 C 228.720 284.738, 143 284.556, 143 285.883 M 279 285.878 C 279 286.727, 359.717 288.091, 361.266 287.269 C 361.688 287.045, 361.774 286.443, 361.457 285.931 C 360.716 284.732, 279 284.680, 279 285.878 M 156.343 296.566 C 154.273 298.636, 153.895 299.748, 154.391 302.316 C 156.232 311.849, 168 310.760, 168 301.057 C 168 294.244, 161.261 291.648, 156.343 296.566 M 287.655 295.829 C 286.745 296.835, 286 298.655, 286 299.874 C 286 302.656, 290.239 307, 292.955 307 C 297.880 307, 300.968 299.111, 297.429 295.571 C 295.279 293.422, 289.700 293.569, 287.655 295.829 M 151.401 321.161 C 150.997 321.814, 150.667 324.316, 150.667 326.722 C 150.667 334.545, 149.699 334.338, 185.190 334.091 C 202.411 333.972, 216.862 333.518, 217.304 333.083 C 217.747 332.647, 217.972 329.638, 217.804 326.396 L 217.500 320.500 184.817 320.236 C 160.420 320.040, 151.949 320.274, 151.401 321.161 M 286.634 322.236 C 285.423 326.755, 285.988 330.988, 288.081 333.081 C 290.119 335.119, 290.771 335.152, 319.831 334.659 C 336.149 334.383, 349.591 334.121, 349.703 334.078 C 350.658 333.710, 351.645 326.497, 351.102 323.845 L 350.419 320.500 318.830 320.236 L 287.241 319.972 286.634 322.236 M 253.320 347.753 L 104.140 348.007 102.070 350.638 C 99.611 353.764, 99.383 358.240, 101.571 360.429 C 102.986 361.843, 118.319 362, 255.416 362 C 401.667 362, 407.755 361.928, 409.345 360.171 C 412.982 356.153, 410.321 348.612, 405 347.856 C 403.625 347.660, 335.369 347.614, 253.320 347.753 M 435.368 377.250 C 398.415 425.881, 352.080 453.142, 288.500 463.661 C 273.547 466.135, 241.092 466.143, 225.508 463.677 C 182.198 456.822, 141.652 438.759, 110 412.219 C 104.775 407.838, 97.688 401.271, 94.251 397.626 C 87.956 390.952, 84.848 389.552, 82.200 392.200 C 79.729 394.671, 81.268 397.201, 91.334 407.217 C 109.834 425.626, 127.148 438, 151.074 449.913 C 180.552 464.589, 209.744 472.906, 237.994 474.676 L 248.487 475.334 252.282 479.167 C 254.370 481.275, 256.828 483, 257.746 483 C 258.665 483, 261.089 481.366, 263.134 479.369 C 266.708 475.879, 267.235 475.703, 276.676 474.846 C 319.525 470.953, 362.253 454.671, 396.253 429.278 C 408.293 420.286, 427.832 401.033, 437.129 389 C 446.800 376.483, 447.344 375.511, 446.036 373.067 C 443.929 369.130, 440.523 370.465, 435.368 377.250 M 375 407.521 C 345.524 423.387, 324.946 431.936, 302.578 437.608 C 257.386 449.067, 212.049 442.493, 160.019 416.936 C 148.829 411.439, 139.202 407.099, 138.626 407.291 C 137.410 407.697, 146.585 415.141, 156.050 421.428 C 193.697 446.435, 250.543 456.671, 298.031 446.994 C 325.328 441.431, 354.925 427.906, 381.754 408.736 C 401.402 394.697, 399.470 394.350, 375 407.521" stroke="none" fill="black" fill-rule="evenodd"/>
</svg>