<svg xmlns="http://www.w3.org/2000/svg" width="512" height="512" viewBox="0 0 512 512" version="1.1">
	<path d="M 416.191 73.695 C 412.906 74.349, 413.549 78.394, 417 78.780 C 423.986 79.562, 424 79.576, 424 86.019 C 424 89.309, 423.887 92.079, 423.750 92.175 C 423.613 92.271, 408.875 92.609, 391 92.925 L 358.500 93.500 358.241 143.750 L 357.982 194 404.839 194 L 451.696 194 452.348 183.344 C 452.707 177.484, 453 155.520, 453 134.536 C 453 105.566, 452.699 95.982, 451.750 94.721 C 450.804 93.464, 448.554 92.992, 442.500 92.780 L 434.500 92.500 434.500 83 L 434.500 73.500 426.500 73.368 C 422.100 73.295, 417.461 73.442, 416.191 73.695 M 174 94.694 C 170.171 96.062, 170 97.538, 170 129.191 L 170 160 146.647 160 L 123.293 160 122.647 152.349 C 121.576 139.683, 121.665 139, 124.378 139 C 125.685 139, 127.310 138.331, 127.989 137.513 C 129.749 135.393, 128.439 131.351, 125.761 130.633 C 122.808 129.842, 113.229 129.851, 104.732 130.653 C 98.579 131.235, 97.908 131.520, 97.335 133.802 C 96.513 137.078, 99.046 138.967, 104.441 139.100 C 107.775 139.182, 108.054 139.323, 106 139.893 C 103.582 140.563, 103.491 140.901, 103.215 150.207 L 102.930 159.829 81.547 160.165 C 69.786 160.349, 59.812 160.853, 59.382 161.283 C 58.030 162.638, 58.521 169.085, 60.050 170.052 C 60.848 170.557, 63.612 170.976, 66.193 170.985 C 74.150 171.011, 74 170.277, 74 209.141 C 74 227.673, 73.727 243.548, 73.393 244.418 C 72.957 245.556, 71.442 246, 68 246 C 64.558 246, 63.043 246.444, 62.607 247.582 C 61.629 250.131, 61.906 253.506, 63.200 254.800 C 64.734 256.334, 120.659 256.421, 156.500 254.944 C 173.606 254.240, 189.079 254.238, 205.500 254.939 C 245.775 256.659, 294.293 257.036, 297.080 255.652 C 300.019 254.192, 300.689 250.832, 298.482 248.625 C 296.982 247.125, 297.120 247, 300.274 247 C 304.117 247, 307 244.516, 307 241.206 C 307 237.534, 303.910 236.826, 291.137 237.573 C 274.071 238.572, 274.884 239.435, 275.224 220.701 L 275.500 205.500 309.436 205.236 C 339.259 205.005, 343.592 204.774, 345.186 203.331 C 346.894 201.786, 347 198.634, 347 149.500 C 347 100.209, 346.898 97.218, 345.171 95.655 C 343.499 94.141, 336.176 94.007, 259.421 94.079 C 213.265 94.122, 174.825 94.399, 174 94.694 M 392.571 106.571 C 390.621 108.522, 390.566 111.023, 392.417 113.559 C 393.693 115.306, 395.355 115.532, 409.007 115.823 C 422.271 116.106, 424.421 115.929, 426.090 114.418 C 428.650 112.102, 428.505 108.467, 425.777 106.557 C 422.508 104.266, 394.864 104.279, 392.571 106.571 M 182.775 148.250 C 182.500 171.538, 182.675 190.262, 183.179 191.250 C 184.016 192.893, 188.595 193, 257.953 193 C 298.589 193, 332.548 192.727, 333.418 192.393 C 334.825 191.853, 335 187.267, 335 150.975 C 335 128.529, 334.727 109.452, 334.393 108.582 C 333.847 107.159, 326.231 107, 258.525 107 L 183.264 107 182.775 148.250 M 437.200 123.200 C 435.727 124.673, 435.630 130.441, 437.035 133.066 C 438.498 135.799, 442.675 135.600, 443.578 132.755 C 445.884 125.488, 441.492 118.908, 437.200 123.200 M 392 135.978 C 392 136.636, 398.424 137, 410.050 137 L 428.100 137 427.800 142.750 L 427.500 148.500 413.500 149.128 C 405.800 149.473, 397.561 149.811, 395.191 149.878 C 392.599 149.951, 391.128 150.398, 391.500 151 C 391.876 151.608, 399.344 152, 410.559 152 L 429 152 429 156.566 C 429 165.136, 429.316 165, 409.465 165 C 398.237 165, 392 165.365, 392 166.022 C 392 166.691, 398.469 166.950, 410.750 166.772 L 429.500 166.500 429.500 151 L 429.500 135.500 410.750 135.228 C 398.469 135.050, 392 135.309, 392 135.978 M 159.500 171.701 C 154.946 172.872, 155 172.412, 155 210.122 L 155 246 161.977 246 C 168.316 246, 169.104 246.229, 170.592 248.500 C 172.179 250.921, 172.580 250.999, 183.365 250.978 C 192.290 250.960, 195.365 250.563, 198.859 248.978 C 202.977 247.110, 205.805 246.987, 249.859 246.767 L 296.500 246.534 255.500 246.017 L 214.500 245.500 214.186 242.243 C 213.992 240.226, 214.372 238.799, 215.186 238.495 C 215.909 238.225, 222.350 237.666, 229.500 237.252 L 242.500 236.500 242.778 222.136 C 242.967 212.397, 242.686 207.326, 241.906 206.386 C 240.966 205.255, 234.560 205, 207.033 205 C 175.843 205, 173.188 204.865, 171.683 203.202 C 170.363 201.743, 170.003 198.584, 169.778 186.452 L 169.500 171.500 165.500 171.343 C 163.300 171.257, 160.600 171.418, 159.500 171.701 M 106.108 172.971 C 86.494 173.434, 83.583 173.711, 82.646 175.197 C 81.920 176.350, 81.893 177.794, 82.562 179.697 L 83.548 182.500 115.024 182.500 L 146.500 182.500 146.823 178.540 C 147.274 173.004, 145.472 171.946, 136.059 172.221 C 131.901 172.343, 118.423 172.680, 106.108 172.971 M 83.235 216.736 L 83.500 245.500 114.269 245.764 L 145.038 246.029 146.036 243.406 C 146.633 241.836, 146.926 230.292, 146.766 214.642 L 146.500 188.500 114.735 188.236 L 82.969 187.972 83.235 216.736 M 99.750 189.555 C 99.338 189.983, 99 196.731, 99 204.550 C 99 217.926, 99.118 218.798, 101 219.290 C 102.792 219.758, 103 220.654, 103 227.906 L 103 236 116.750 236.014 C 124.313 236.021, 131.512 236.299, 132.750 236.630 C 134.933 237.215, 135 237.015, 135.015 229.867 C 135.032 221.792, 135.513 220.500, 138.500 220.500 C 140.401 220.500, 140.514 219.741, 140.776 205.250 L 141.052 190 128.177 190 C 121.096 190, 111.971 189.725, 107.901 189.389 C 103.830 189.052, 100.162 189.127, 99.750 189.555 M 113 203 C 110.212 205.788, 110.241 213.003, 113.050 215.545 C 116.019 218.232, 121.776 217.995, 124.129 215.089 C 126.919 211.643, 126.516 207.362, 123.077 203.923 C 119.641 200.487, 115.859 200.141, 113 203 M 253.897 205.883 C 251.864 207.529, 251.718 208.086, 252.736 210.321 C 254.383 213.935, 257.056 215.154, 260.063 213.662 C 263.425 211.995, 263.836 207.699, 260.835 205.597 C 257.895 203.538, 256.734 203.585, 253.897 205.883 M 380.394 212.415 C 380.090 213.207, 379.990 214.900, 380.171 216.177 L 380.500 218.500 417.391 218.500 C 451.438 218.500, 454.367 218.365, 455.386 216.750 C 456.191 215.474, 456.191 214.526, 455.386 213.250 C 454.373 211.643, 451.281 211.479, 417.615 211.238 C 386.457 211.015, 380.864 211.192, 380.394 212.415 M 394.418 221.917 C 394.188 222.146, 394 227.433, 394 233.667 L 394 245 417.965 245 C 440.635 245, 441.986 244.895, 442.965 243.066 C 444.085 240.972, 444.333 230.649, 443.399 225 L 442.820 221.500 418.829 221.500 C 405.633 221.500, 394.648 221.688, 394.418 221.917 M 343.200 226.200 C 341.040 228.360, 341.761 231.902, 344.500 232.589 C 346.780 233.162, 347 233.691, 347 238.608 C 347 244.721, 346.459 244.434, 357.250 244.040 C 361.204 243.895, 364 244.204, 364 244.783 C 364 245.362, 357.659 246.076, 348.750 246.500 C 330.926 247.350, 328.052 248.320, 328.017 253.500 C 328.004 255.478, 328.666 255.500, 389.537 255.500 C 455.380 255.500, 452.941 255.681, 452.985 250.785 C 453.020 246.786, 450.170 246.500, 410.333 246.500 C 389.342 246.500, 371.829 246.162, 371.417 245.750 C 371.004 245.338, 371.754 244.993, 373.083 244.985 C 377.030 244.960, 378.394 243.456, 378.449 239.070 C 378.497 235.282, 378.724 234.961, 381.777 234.385 C 386.499 233.495, 389.173 227.048, 385.418 225.607 C 382.277 224.402, 344.467 224.933, 343.200 226.200 M 88.506 240.991 C 88.158 241.554, 88.472 242.244, 89.204 242.525 C 91.751 243.502, 140.994 242.533, 141.251 241.500 C 141.598 240.106, 89.364 239.602, 88.506 240.991 M 151 259.094 C 148.525 259.575, 143.654 261.411, 140.175 263.172 C 135.532 265.524, 133.650 266.052, 133.100 265.161 C 132.523 264.228, 120.354 264.011, 80.593 264.223 C 30.685 264.490, 28.787 264.569, 27.419 266.441 C 25.339 269.286, 25.651 275.286, 28.036 278.318 C 29.774 280.528, 30.980 280.950, 36.286 281.203 L 42.500 281.500 43 356.787 C 43.559 440.957, 42.825 433.957, 51.095 433.985 C 54.438 433.996, 56.185 433.453, 57.505 431.994 C 59.236 430.082, 59.293 426.569, 58.721 356.633 C 58.277 302.376, 58.418 282.982, 59.261 282.139 C 61.188 280.212, 138 281.207, 138 283.159 C 138 283.622, 123.436 284, 105.635 284 C 74.406 284, 73.177 284.073, 70.635 286.073 L 68 288.145 68 342.138 C 68 377.258, 68.360 396.804, 69.030 398.055 C 69.596 399.114, 71.396 400.671, 73.030 401.515 L 76 403.051 76 416.526 C 76 428.667, 76.198 430.198, 78 432 C 80.703 434.703, 84.572 434.518, 87.545 431.545 C 89.898 429.193, 90 428.554, 90 416.194 L 90 403.296 98.250 402.654 C 111.622 401.613, 153.726 401.885, 152 403.001 C 151.175 403.534, 148.250 404.708, 145.500 405.610 C 139.608 407.543, 136 410.521, 136 413.452 C 136 414.609, 135.395 416.443, 134.655 417.527 C 129.351 425.309, 134.980 436, 144.381 436 C 147.912 436, 149.175 435.415, 152.054 432.442 C 155.209 429.185, 155.497 428.382, 155.465 422.942 C 155.446 419.674, 155.757 417, 156.156 417 C 157.663 417, 158.322 419.508, 158.121 424.480 C 157.872 430.631, 160.193 434.248, 165.516 436.005 C 176.854 439.747, 185.699 426.157, 178.003 416.820 L 175.006 413.184 182.434 410.092 C 186.519 408.391, 190.775 407, 191.893 407 C 194.392 407, 203.948 410.510, 206.470 412.354 C 208.258 413.662, 208.243 413.867, 206.028 418.442 C 204.038 422.553, 203.883 423.667, 204.851 426.898 C 206.428 432.161, 209.977 435.130, 215.427 435.745 C 219.693 436.226, 220.228 436.007, 223.989 432.246 C 227.387 428.848, 228 427.598, 228 424.068 C 228 421.776, 227.283 418.514, 226.406 416.818 L 224.812 413.736 227.650 414.448 C 232.370 415.633, 233.097 416.784, 232.409 421.977 C 231.339 430.043, 236.140 436.200, 243.500 436.200 C 245.450 436.200, 248.203 435.442, 249.616 434.516 C 252.901 432.363, 256.014 425.370, 255.303 421.739 C 254.732 418.820, 249.824 414, 247.423 414 C 246.521 414, 246 412.943, 246 411.111 C 246 406.618, 243.296 404.373, 232.540 399.932 C 220.658 395.027, 213.139 391.335, 210.750 389.231 C 209.309 387.962, 209 385.973, 209 377.970 C 209 365.276, 208.358 362.193, 205.636 361.805 C 203.747 361.535, 203.465 360.761, 203.198 355.102 C 203.033 351.582, 203.258 348.354, 203.698 347.927 C 204.139 347.500, 209.450 346.042, 215.500 344.686 C 227.596 341.974, 240.965 337.172, 246.156 333.674 C 250.478 330.761, 250.741 326.643, 246.794 323.696 C 244.605 322.061, 242.081 321.586, 233.559 321.207 C 227.308 320.929, 222.635 320.265, 222.060 319.572 C 221.149 318.474, 226.958 285.494, 228.503 282.995 C 228.899 282.354, 248.852 282, 284.524 282 C 336.283 282, 339.989 282.115, 340.826 283.750 C 341.319 284.712, 343.422 293.111, 345.498 302.413 C 350.103 323.036, 350.671 322, 334.759 322 C 323.118 322, 318.683 323.274, 317.515 326.951 C 316.517 330.096, 318.447 332.405, 324.588 335.412 C 333.212 339.634, 340.349 341.947, 352.500 344.456 L 363.500 346.727 363.792 354.364 C 364.082 361.953, 364.068 362, 361.542 362 L 359 362 358.985 373.750 C 358.976 381.030, 358.501 386.451, 357.735 388 C 356.212 391.082, 345.775 396.397, 332.299 400.952 C 318.537 405.604, 318 406.015, 318 411.901 C 318 414.824, 317.447 417.214, 316.611 417.908 C 312.904 420.984, 314.888 430.360, 320.018 434.013 C 321.690 435.203, 324.420 436, 326.827 436 C 334.135 436, 339.702 427.606, 337.038 420.601 C 335.758 417.234, 336.327 416.197, 338.476 417.980 C 339.454 418.792, 340 420.964, 340 424.046 C 340 435.785, 353.300 441.117, 360.924 432.434 C 365.361 427.381, 365.208 422.343, 360.459 417.086 L 356.917 413.166 363.386 409.982 C 369.418 407.012, 370.113 406.882, 373.677 408.056 C 380.241 410.217, 390 414.873, 390 415.844 C 390 416.354, 389.328 418.060, 388.506 419.636 C 386.552 423.383, 386.604 427.520, 388.648 430.981 C 390.291 433.762, 395.662 437, 398.633 437 C 402.266 437, 406.874 433.713, 409.086 429.544 C 411.177 425.602, 411.270 424.843, 410.121 421.011 C 408.624 416.013, 409.113 415.189, 412.329 417.296 C 414.459 418.692, 414.667 419.414, 414.233 423.922 C 413.769 428.759, 413.924 429.160, 417.756 432.991 C 420.860 436.095, 422.525 436.997, 425.132 436.985 C 429.700 436.965, 432.997 435.129, 435.720 431.088 C 440.925 423.363, 436.164 415, 426.561 415 C 423.212 415, 422.990 414.788, 422.390 411.035 C 421.624 406.249, 420.615 405.536, 407.500 400.530 C 395.313 395.878, 388.570 392.570, 385.966 389.966 C 384.221 388.221, 384 386.594, 384 375.475 C 384 363.036, 383.983 362.944, 381.500 362 C 379.165 361.112, 379 360.592, 379 354.115 L 379 347.181 386.250 346.005 C 401.952 343.457, 416.072 338.788, 419.489 335.013 C 422.144 332.078, 421.085 327.772, 417.272 326 C 415.496 325.175, 414.028 323.825, 414.008 323 C 413.929 319.554, 423.379 283.764, 424.725 282.418 C 425.918 281.224, 429.280 281.003, 442.845 281.226 L 459.500 281.500 460 356.331 C 460.485 428.947, 460.557 431.204, 462.441 432.581 C 465.658 434.932, 472.482 434.709, 475.387 432.158 C 477.211 430.555, 477.261 428.021, 476.887 356 L 476.500 281.500 481.374 280.940 C 486.827 280.314, 488.602 278.636, 489.635 273.134 C 490.067 270.828, 489.800 268.734, 488.860 267.058 L 487.424 264.500 459.962 264.225 C 441.374 264.039, 431.828 264.307, 430.421 265.053 C 428.766 265.930, 427.119 265.658, 422.349 263.720 C 410.533 258.919, 407.087 258.499, 379.500 258.509 C 350.938 258.518, 346.426 259.168, 334.568 264.984 C 328.547 267.937, 327 268.030, 327 265.441 C 327 263.296, 235.846 263.275, 234.066 265.420 C 233.063 266.629, 231.844 266.410, 225.865 263.944 C 213.534 258.859, 206.656 257.988, 179.792 258.110 C 166.431 258.170, 153.475 258.613, 151 259.094 M 159.523 282.962 C 158.900 283.970, 163.046 305.742, 165.569 314.716 C 166.940 319.592, 167.313 320.012, 171.268 321.150 C 177.248 322.871, 200.627 322.868, 204.707 321.147 C 208.675 319.472, 209.240 317.777, 212.020 299.199 C 213.702 287.967, 213.903 284.588, 212.958 283.449 C 211.964 282.252, 207.266 282, 185.937 282 C 170.479 282, 159.879 282.386, 159.523 282.962 M 358.041 282.953 C 356.308 284.050, 356.430 287.944, 358.576 300 C 361.709 317.601, 362.090 318.978, 364.138 320.074 C 367.169 321.696, 384.697 323.235, 391.736 322.498 C 401.287 321.496, 401.582 321.053, 405.625 301.676 C 408.380 288.475, 408.878 284.558, 407.944 283.433 C 406.973 282.262, 402.429 282.003, 383.128 282.015 C 370.132 282.024, 358.844 282.446, 358.041 282.953 M 90.994 299.734 C 87.182 304.580, 90.035 311, 96 311 C 100.180 311, 102.400 308.741, 102.400 304.488 C 102.400 297.546, 95.107 294.506, 90.994 299.734 M 90.607 324.582 C 89.560 327.309, 89.943 331.539, 91.418 333.559 C 92.617 335.199, 94.284 335.544, 102.168 335.784 C 107.301 335.940, 115.759 335.715, 120.965 335.284 L 130.430 334.500 131.340 331.317 C 131.841 329.567, 131.961 326.979, 131.606 325.567 L 130.962 323 111.088 323 C 93.888 323, 91.132 323.213, 90.607 324.582 M 170 369.931 C 170 386.515, 170.350 395, 171.033 395 C 173.218 395, 181.978 389.909, 182.964 388.067 C 183.534 387.003, 184 380.733, 184 374.135 C 184 362.456, 184.059 362.131, 186.250 361.820 C 188.375 361.518, 188.482 361.111, 188.178 354.500 C 188.002 350.650, 187.552 347.215, 187.178 346.867 C 186.805 346.519, 182.787 345.926, 178.250 345.548 L 170 344.863 170 369.931" stroke="none" fill="#009779" fill-rule="evenodd"/>
</svg>