<?xml version="1.0" encoding="UTF-8"?>
<!DOCTYPE svg PUBLIC "-//W3C//DTD SVG 1.1//EN" "http://www.w3.org/Graphics/SVG/1.1/DTD/svg11.dtd">
<svg xmlns="http://www.w3.org/2000/svg" version="1.1" width="250px" height="235px" style="shape-rendering:geometricPrecision; text-rendering:geometricPrecision; image-rendering:optimizeQuality; fill-rule:evenodd; clip-rule:evenodd" xmlns:xlink="http://www.w3.org/1999/xlink">
<g><path style="opacity:0.846" fill="#9ac3e9" d="M 238.5,14.5 C 237.508,14.3284 236.842,14.6618 236.5,15.5C 235.833,15.5 235.5,15.8333 235.5,16.5C 234.508,16.3284 233.842,16.6618 233.5,17.5C 232.508,17.3284 231.842,17.6618 231.5,18.5C 230.833,18.5 230.5,18.8333 230.5,19.5C 229.508,19.3284 228.842,19.6618 228.5,20.5C 227.508,20.3284 226.842,20.6618 226.5,21.5C 225.508,21.3284 224.842,21.6618 224.5,22.5C 223.833,22.5 223.5,22.8333 223.5,23.5C 222.508,23.3284 221.842,23.6618 221.5,24.5C 220.508,24.3284 219.842,24.6618 219.5,25.5C 218.833,25.5 218.5,25.8333 218.5,26.5C 218.167,26.5 217.833,26.5 217.5,26.5C 216.833,26.5 216.5,26.8333 216.5,27.5C 216.167,27.5 215.833,27.5 215.5,27.5C 214.833,27.5 214.5,27.8333 214.5,28.5C 213.508,28.3284 212.842,28.6618 212.5,29.5C 211.833,29.5 211.5,29.8333 211.5,30.5C 211.167,30.5 210.833,30.5 210.5,30.5C 209.833,30.5 209.5,30.8333 209.5,31.5C 208.508,31.3284 207.842,31.6618 207.5,32.5C 206.508,32.3284 205.842,32.6618 205.5,33.5C 203.973,33.427 202.973,34.0937 202.5,35.5C 201.508,35.3284 200.842,35.6618 200.5,36.5C 199.508,36.3284 198.842,36.6618 198.5,37.5C 197.833,37.5 197.5,37.8333 197.5,38.5C 196.508,38.3284 195.842,38.6618 195.5,39.5C 194.508,39.3284 193.842,39.6618 193.5,40.5C 192.508,40.3284 191.842,40.6618 191.5,41.5C 190.833,41.5 190.5,41.8333 190.5,42.5C 189.508,42.3284 188.842,42.6618 188.5,43.5C 187.508,43.3284 186.842,43.6618 186.5,44.5C 185.833,44.5 185.5,44.8333 185.5,45.5C 184.508,45.3284 183.842,45.6618 183.5,46.5C 182.508,46.3284 181.842,46.6618 181.5,47.5C 180.508,47.3284 179.842,47.6618 179.5,48.5C 178.833,48.5 178.5,48.8333 178.5,49.5C 178.167,49.5 177.833,49.5 177.5,49.5C 176.833,49.5 176.5,49.8333 176.5,50.5C 175.508,50.3284 174.842,50.6618 174.5,51.5C 173.833,51.5 173.5,51.8333 173.5,52.5C 173.167,52.5 172.833,52.5 172.5,52.5C 171.833,52.5 171.5,52.8333 171.5,53.5C 170.508,53.3284 169.842,53.6618 169.5,54.5C 168.508,54.3284 167.842,54.6618 167.5,55.5C 166.833,55.5 166.5,55.8333 166.5,56.5C 166.167,56.5 165.833,56.5 165.5,56.5C 164.833,56.5 164.5,56.8333 164.5,57.5C 163.508,57.3284 162.842,57.6618 162.5,58.5C 161.508,58.3284 160.842,58.6618 160.5,59.5C 159.833,59.5 159.5,59.8333 159.5,60.5C 159.167,60.5 158.833,60.5 158.5,60.5C 157.833,60.5 157.5,60.8333 157.5,61.5C 156.508,61.3284 155.842,61.6618 155.5,62.5C 154.508,62.3284 153.842,62.6618 153.5,63.5C 152.833,63.5 152.5,63.8333 152.5,64.5C 151.508,64.3284 150.842,64.6618 150.5,65.5C 149.508,65.3284 148.842,65.6618 148.5,66.5C 146.973,66.427 145.973,67.0937 145.5,68.5C 144.508,68.3284 143.842,68.6618 143.5,69.5C 142.508,69.3284 141.842,69.6618 141.5,70.5C 140.833,70.5 140.5,70.8333 140.5,71.5C 140.167,71.5 139.833,71.5 139.5,71.5C 138.833,71.5 138.5,71.8333 138.5,72.5C 137.508,72.3284 136.842,72.6618 136.5,73.5C 135.508,73.3284 134.842,73.6618 134.5,74.5C 133.833,74.5 133.5,74.8333 133.5,75.5C 133.167,75.5 132.833,75.5 132.5,75.5C 131.833,75.5 131.5,75.8333 131.5,76.5C 130.508,76.3284 129.842,76.6618 129.5,77.5C 128.833,77.5 128.5,77.8333 128.5,78.5C 128.167,78.5 127.833,78.5 127.5,78.5C 126.833,78.5 126.167,78.5 125.5,78.5C 125.158,77.6618 124.492,77.3284 123.5,77.5C 123.158,76.6618 122.492,76.3284 121.5,76.5C 121.5,75.8333 121.167,75.5 120.5,75.5C 120.158,74.6618 119.492,74.3284 118.5,74.5C 118.158,73.6618 117.492,73.3284 116.5,73.5C 116.158,72.6618 115.492,72.3284 114.5,72.5C 114.158,71.6618 113.492,71.3284 112.5,71.5C 112.5,70.8333 112.167,70.5 111.5,70.5C 111.158,69.6618 110.492,69.3284 109.5,69.5C 109.158,68.6618 108.492,68.3284 107.5,68.5C 107.5,67.8333 107.167,67.5 106.5,67.5C 106.158,66.6618 105.492,66.3284 104.5,66.5C 104.158,65.6618 103.492,65.3284 102.5,65.5C 102.158,64.6618 101.492,64.3284 100.5,64.5C 100.5,63.8333 100.167,63.5 99.5,63.5C 99.1583,62.6618 98.4916,62.3284 97.5,62.5C 97.1583,61.6618 96.4916,61.3284 95.5,61.5C 95.5,60.8333 95.1667,60.5 94.5,60.5C 94.1583,59.6618 93.4916,59.3284 92.5,59.5C 92.1583,58.6618 91.4916,58.3284 90.5,58.5C 90.1583,57.6618 89.4916,57.3284 88.5,57.5C 88.5,56.8333 88.1667,56.5 87.5,56.5C 87.1583,55.6618 86.4916,55.3284 85.5,55.5C 85.1583,54.6618 84.4916,54.3284 83.5,54.5C 83.5,53.8333 83.1667,53.5 82.5,53.5C 82.1583,52.6618 81.4916,52.3284 80.5,52.5C 80.1583,51.6618 79.4916,51.3284 78.5,51.5C 78.1583,50.6618 77.4916,50.3284 76.5,50.5C 76.5,49.8333 76.1667,49.5 75.5,49.5C 75.1667,49.5 74.8333,49.5 74.5,49.5C 74.5,48.8333 74.1667,48.5 73.5,48.5C 73.1583,47.6618 72.4916,47.3284 71.5,47.5C 71.1583,46.6618 70.4916,46.3284 69.5,46.5C 69.5,45.8333 69.1667,45.5 68.5,45.5C 68.1667,45.5 67.8333,45.5 67.5,45.5C 67.5,44.8333 67.1667,44.5 66.5,44.5C 66.1583,43.6618 65.4916,43.3284 64.5,43.5C 64.1583,42.6618 63.4916,42.3284 62.5,42.5C 62.5,41.8333 62.1667,41.5 61.5,41.5C 61.1583,40.6618 60.4916,40.3284 59.5,40.5C 59.1583,39.6618 58.4916,39.3284 57.5,39.5C 57.5,38.8333 57.1667,38.5 56.5,38.5C 56.1667,38.5 55.8333,38.5 55.5,38.5C 55.5,37.8333 55.1667,37.5 54.5,37.5C 54.1583,36.6618 53.4916,36.3284 52.5,36.5C 52.1583,35.6618 51.4916,35.3284 50.5,35.5C 50.5,34.8333 50.1667,34.5 49.5,34.5C 49.1583,33.6618 48.4916,33.3284 47.5,33.5C 47.1583,32.6618 46.4916,32.3284 45.5,32.5C 45.1583,31.6618 44.4916,31.3284 43.5,31.5C 43.5,30.8333 43.1667,30.5 42.5,30.5C 42.1583,29.6618 41.4916,29.3284 40.5,29.5C 40.1583,28.6618 39.4916,28.3284 38.5,28.5C 38.5,27.8333 38.1667,27.5 37.5,27.5C 37.1583,26.6618 36.4916,26.3284 35.5,26.5C 35.1583,25.6618 34.4916,25.3284 33.5,25.5C 33.1583,24.6618 32.4916,24.3284 31.5,24.5C 31.5,23.8333 31.1667,23.5 30.5,23.5C 30.1667,23.5 29.8333,23.5 29.5,23.5C 29.5,22.8333 29.1667,22.5 28.5,22.5C 28.1583,21.6618 27.4916,21.3284 26.5,21.5C 26.5,20.8333 26.1667,20.5 25.5,20.5C 25.1667,20.5 24.8333,20.5 24.5,20.5C 24.5,19.8333 24.1667,19.5 23.5,19.5C 23.1583,18.6618 22.4916,18.3284 21.5,18.5C 21.1583,17.6618 20.4916,17.3284 19.5,17.5C 19.1583,16.6618 18.4916,16.3284 17.5,16.5C 17.5,15.8333 17.1667,15.5 16.5,15.5C 16.1583,14.6618 15.4916,14.3284 14.5,14.5C 14.4701,13.5028 14.9701,12.8361 16,12.5C 52.7292,26.4651 89.5625,40.1317 126.5,53.5C 163.449,40.1284 200.282,26.4618 237,12.5C 238.03,12.8361 238.53,13.5028 238.5,14.5 Z"/></g>
<g><path style="opacity:0.862" fill="#3e1165" d="M 14.5,14.5 C 14.8417,15.3382 15.5084,15.6716 16.5,15.5C 17.1667,15.5 17.5,15.8333 17.5,16.5C 17.8417,17.3382 18.5084,17.6716 19.5,17.5C 19.8417,18.3382 20.5084,18.6716 21.5,18.5C 21.8417,19.3382 22.5084,19.6716 23.5,19.5C 24.1667,19.5 24.5,19.8333 24.5,20.5C 24.8333,20.5 25.1667,20.5 25.5,20.5C 26.1667,20.5 26.5,20.8333 26.5,21.5C 26.8417,22.3382 27.5084,22.6716 28.5,22.5C 29.1667,22.5 29.5,22.8333 29.5,23.5C 29.8333,23.5 30.1667,23.5 30.5,23.5C 31.1667,23.5 31.5,23.8333 31.5,24.5C 31.8417,25.3382 32.5084,25.6716 33.5,25.5C 33.8417,26.3382 34.5084,26.6716 35.5,26.5C 35.8417,27.3382 36.5084,27.6716 37.5,27.5C 38.1667,27.5 38.5,27.8333 38.5,28.5C 38.8417,29.3382 39.5084,29.6716 40.5,29.5C 40.8417,30.3382 41.5084,30.6716 42.5,30.5C 43.1667,30.5 43.5,30.8333 43.5,31.5C 43.8417,32.3382 44.5084,32.6716 45.5,32.5C 45.8417,33.3382 46.5084,33.6716 47.5,33.5C 47.8417,34.3382 48.5084,34.6716 49.5,34.5C 50.1667,34.5 50.5,34.8333 50.5,35.5C 50.8417,36.3382 51.5084,36.6716 52.5,36.5C 52.8417,37.3382 53.5084,37.6716 54.5,37.5C 55.1667,37.5 55.5,37.8333 55.5,38.5C 55.8333,38.5 56.1667,38.5 56.5,38.5C 57.1667,38.5 57.5,38.8333 57.5,39.5C 57.8417,40.3382 58.5084,40.6716 59.5,40.5C 59.8417,41.3382 60.5084,41.6716 61.5,41.5C 62.1667,41.5 62.5,41.8333 62.5,42.5C 62.8417,43.3382 63.5084,43.6716 64.5,43.5C 64.8417,44.3382 65.5084,44.6716 66.5,44.5C 67.1667,44.5 67.5,44.8333 67.5,45.5C 67.8333,45.5 68.1667,45.5 68.5,45.5C 69.1667,45.5 69.5,45.8333 69.5,46.5C 69.8417,47.3382 70.5084,47.6716 71.5,47.5C 71.8417,48.3382 72.5084,48.6716 73.5,48.5C 74.1667,48.5 74.5,48.8333 74.5,49.5C 74.8333,49.5 75.1667,49.5 75.5,49.5C 76.1667,49.5 76.5,49.8333 76.5,50.5C 76.8417,51.3382 77.5084,51.6716 78.5,51.5C 78.8417,52.3382 79.5084,52.6716 80.5,52.5C 80.8417,53.3382 81.5084,53.6716 82.5,53.5C 83.1667,53.5 83.5,53.8333 83.5,54.5C 83.8417,55.3382 84.5084,55.6716 85.5,55.5C 85.8417,56.3382 86.5084,56.6716 87.5,56.5C 88.1667,56.5 88.5,56.8333 88.5,57.5C 88.8417,58.3382 89.5084,58.6716 90.5,58.5C 90.8417,59.3382 91.5084,59.6716 92.5,59.5C 92.8417,60.3382 93.5084,60.6716 94.5,60.5C 95.1667,60.5 95.5,60.8333 95.5,61.5C 95.8417,62.3382 96.5084,62.6716 97.5,62.5C 97.8417,63.3382 98.5084,63.6716 99.5,63.5C 100.167,63.5 100.5,63.8333 100.5,64.5C 100.842,65.3382 101.508,65.6716 102.5,65.5C 102.842,66.3382 103.508,66.6716 104.5,66.5C 104.842,67.3382 105.508,67.6716 106.5,67.5C 107.167,67.5 107.5,67.8333 107.5,68.5C 107.842,69.3382 108.508,69.6716 109.5,69.5C 109.842,70.3382 110.508,70.6716 111.5,70.5C 112.167,70.5 112.5,70.8333 112.5,71.5C 112.842,72.3382 113.508,72.6716 114.5,72.5C 114.842,73.3382 115.508,73.6716 116.5,73.5C 116.842,74.3382 117.508,74.6716 118.5,74.5C 118.842,75.3382 119.508,75.6716 120.5,75.5C 121.167,75.5 121.5,75.8333 121.5,76.5C 121.842,77.3382 122.508,77.6716 123.5,77.5C 123.842,78.3382 124.508,78.6716 125.5,78.5C 125.168,120.337 125.501,162.003 126.5,203.5C 126.5,204.833 126.5,206.167 126.5,207.5C 125.849,208.091 125.182,208.757 124.5,209.5C 124.167,208.167 123.833,206.833 123.5,205.5C 117.161,167.443 110.661,129.443 104,91.5C 73.3293,66.3254 42.8293,40.9921 12.5,15.5C 12.9569,14.7025 13.6236,14.3691 14.5,14.5 Z"/></g>
<g><path style="opacity:0.824" fill="#569ada" d="M 238.5,14.5 C 239.376,14.3691 240.043,14.7025 240.5,15.5C 210.171,40.9921 179.671,66.3254 149,91.5C 141.926,130.419 135.26,169.419 129,208.5C 127.539,209.883 126.706,209.549 126.5,207.5C 126.5,206.167 126.5,204.833 126.5,203.5C 126.173,161.761 126.506,120.094 127.5,78.5C 127.833,78.5 128.167,78.5 128.5,78.5C 129.167,78.5 129.5,78.1667 129.5,77.5C 130.492,77.6716 131.158,77.3382 131.5,76.5C 132.167,76.5 132.5,76.1667 132.5,75.5C 132.833,75.5 133.167,75.5 133.5,75.5C 134.167,75.5 134.5,75.1667 134.5,74.5C 135.492,74.6716 136.158,74.3382 136.5,73.5C 137.492,73.6716 138.158,73.3382 138.5,72.5C 139.167,72.5 139.5,72.1667 139.5,71.5C 139.833,71.5 140.167,71.5 140.5,71.5C 141.167,71.5 141.5,71.1667 141.5,70.5C 142.492,70.6716 143.158,70.3382 143.5,69.5C 144.492,69.6716 145.158,69.3382 145.5,68.5C 147.027,68.573 148.027,67.9063 148.5,66.5C 149.492,66.6716 150.158,66.3382 150.5,65.5C 151.492,65.6716 152.158,65.3382 152.5,64.5C 153.167,64.5 153.5,64.1667 153.5,63.5C 154.492,63.6716 155.158,63.3382 155.5,62.5C 156.492,62.6716 157.158,62.3382 157.5,61.5C 158.167,61.5 158.5,61.1667 158.5,60.5C 158.833,60.5 159.167,60.5 159.5,60.5C 160.167,60.5 160.5,60.1667 160.5,59.5C 161.492,59.6716 162.158,59.3382 162.5,58.5C 163.492,58.6716 164.158,58.3382 164.5,57.5C 165.167,57.5 165.5,57.1667 165.5,56.5C 165.833,56.5 166.167,56.5 166.5,56.5C 167.167,56.5 167.5,56.1667 167.5,55.5C 168.492,55.6716 169.158,55.3382 169.5,54.5C 170.492,54.6716 171.158,54.3382 171.5,53.5C 172.167,53.5 172.5,53.1667 172.5,52.5C 172.833,52.5 173.167,52.5 173.5,52.5C 174.167,52.5 174.5,52.1667 174.5,51.5C 175.492,51.6716 176.158,51.3382 176.5,50.5C 177.167,50.5 177.5,50.1667 177.5,49.5C 177.833,49.5 178.167,49.5 178.5,49.5C 179.167,49.5 179.5,49.1667 179.5,48.5C 180.492,48.6716 181.158,48.3382 181.5,47.5C 182.492,47.6716 183.158,47.3382 183.5,46.5C 184.492,46.6716 185.158,46.3382 185.5,45.5C 186.167,45.5 186.5,45.1667 186.5,44.5C 187.492,44.6716 188.158,44.3382 188.5,43.5C 189.492,43.6716 190.158,43.3382 190.5,42.5C 191.167,42.5 191.5,42.1667 191.5,41.5C 192.492,41.6716 193.158,41.3382 193.5,40.5C 194.492,40.6716 195.158,40.3382 195.5,39.5C 196.492,39.6716 197.158,39.3382 197.5,38.5C 198.167,38.5 198.5,38.1667 198.5,37.5C 199.492,37.6716 200.158,37.3382 200.5,36.5C 201.492,36.6716 202.158,36.3382 202.5,35.5C 204.027,35.573 205.027,34.9063 205.5,33.5C 206.492,33.6716 207.158,33.3382 207.5,32.5C 208.492,32.6716 209.158,32.3382 209.5,31.5C 210.167,31.5 210.5,31.1667 210.5,30.5C 210.833,30.5 211.167,30.5 211.5,30.5C 212.167,30.5 212.5,30.1667 212.5,29.5C 213.492,29.6716 214.158,29.3382 214.5,28.5C 215.167,28.5 215.5,28.1667 215.5,27.5C 215.833,27.5 216.167,27.5 216.5,27.5C 217.167,27.5 217.5,27.1667 217.5,26.5C 217.833,26.5 218.167,26.5 218.5,26.5C 219.167,26.5 219.5,26.1667 219.5,25.5C 220.492,25.6716 221.158,25.3382 221.5,24.5C 222.492,24.6716 223.158,24.3382 223.5,23.5C 224.167,23.5 224.5,23.1667 224.5,22.5C 225.492,22.6716 226.158,22.3382 226.5,21.5C 227.492,21.6716 228.158,21.3382 228.5,20.5C 229.492,20.6716 230.158,20.3382 230.5,19.5C 231.167,19.5 231.5,19.1667 231.5,18.5C 232.492,18.6716 233.158,18.3382 233.5,17.5C 234.492,17.6716 235.158,17.3382 235.5,16.5C 236.167,16.5 236.5,16.1667 236.5,15.5C 237.492,15.6716 238.158,15.3382 238.5,14.5 Z"/></g>
</svg>
