<svg xmlns="http://www.w3.org/2000/svg" width="512" height="512" viewBox="0 0 512 512" version="1.1">
	<path d="M 269.929 37.329 C 263.490 39.119, 260.720 40.877, 221.500 68.059 C 138.872 125.327, 121.905 137.034, 111.500 143.960 C 91.346 157.375, 89 159.991, 89 169.049 C 89 178.915, 93.139 183.759, 108.236 191.564 C 113.041 194.048, 117.380 196.849, 117.878 197.790 C 118.389 198.753, 118.941 234.075, 119.142 278.689 L 119.500 357.877 116.185 361.303 L 112.871 364.729 113.185 382.801 L 113.500 400.874 116.500 404.072 C 126.177 414.388, 174.094 437.797, 235.233 462.078 C 258.220 471.207, 266.081 473.378, 272.853 472.466 C 283.896 470.979, 296.482 465.329, 302.096 459.338 C 304.074 457.227, 310.556 448.300, 316.500 439.500 C 350.645 388.948, 410.541 308.603, 432.689 283.642 L 437 278.784 437 262.969 C 437 247.558, 436.936 247.077, 434.500 244.182 L 432 241.211 432 190.574 C 432 150.003, 432.272 139.296, 433.366 136.718 C 434.118 134.948, 437.830 130.575, 441.616 127 C 451.846 117.340, 453 115.542, 453 109.256 C 453 100.228, 448.565 94.758, 436.625 89.060 C 417.577 79.969, 361.884 59.831, 324.500 48.517 C 287.255 37.245, 277.459 35.237, 269.929 37.329 M 269 45.675 C 266.533 46.717, 253.963 55.349, 227 74.519 C 192.812 98.825, 157.884 123.308, 139 136.202 C 130.475 142.023, 122.773 147.621, 121.884 148.643 C 119.301 151.612, 118.695 155.885, 120.472 158.598 C 122.944 162.371, 129.495 165.125, 165.104 177.365 C 205.707 191.321, 223.899 197.879, 256.759 210.408 C 292.825 224.159, 298.159 225.074, 309.624 219.478 C 327.364 210.817, 416.600 124.211, 425.484 107.031 C 428.025 102.118, 427.417 99.087, 423.059 94.941 C 419.927 91.962, 414.950 89.548, 398.809 83.183 C 371.640 72.468, 339.580 61.374, 311 52.799 C 291.620 46.984, 286.010 45.686, 279 45.395 C 274.325 45.201, 269.825 45.327, 269 45.675 M 269.687 49.479 C 267.589 50.282, 257.014 57.114, 246.187 64.660 C 183.417 108.408, 171.944 116.445, 156.500 127.484 C 125.898 149.359, 125 150.071, 125 152.468 C 125 157.041, 126.253 157.605, 169.500 172.507 C 184.350 177.624, 216.300 189.085, 240.500 197.975 C 264.700 206.865, 287.262 214.780, 290.637 215.565 C 297.424 217.142, 304.396 216.373, 310.249 213.401 C 324.483 206.174, 398.906 134.787, 418.462 109.603 C 426.161 99.688, 425.315 98.513, 404 89.533 C 373.387 76.635, 335.510 63.384, 302.500 54.024 C 282.205 48.269, 275.333 47.318, 269.687 49.479 M 325.083 70.358 C 325.313 70.555, 333.150 73.531, 342.500 76.973 C 351.850 80.414, 366.635 86.131, 375.355 89.677 C 392.430 96.620, 397.627 97.489, 383.908 91.107 C 367.919 83.670, 321.530 67.307, 325.083 70.358 M 265.561 75.583 C 259.405 77.838, 228.248 99.818, 173.573 140.477 C 154.059 154.989, 153.690 155.331, 155.737 156.988 C 156.886 157.918, 169.003 162.643, 182.663 167.486 C 196.323 172.329, 223.475 182.110, 243 189.221 C 262.525 196.332, 281.529 203.241, 285.231 204.575 C 293.702 207.627, 299.428 207.678, 304.859 204.750 C 315.197 199.177, 394 123.853, 394 119.545 C 394 117.031, 391.025 114.006, 386.107 111.517 C 382.043 109.461, 302.031 80.345, 290.198 76.616 C 280.815 73.659, 271.842 73.283, 265.561 75.583 M 255.500 100.621 C 245.050 108.639, 227.547 122.017, 216.604 130.350 C 190.958 149.879, 191 149.844, 191 152.066 C 191 154.571, 193.425 156.017, 206.500 161.307 C 220.693 167.049, 263.207 182.567, 273.330 185.701 C 282.538 188.551, 281.510 188.947, 294.299 177.638 C 298.809 173.649, 313.525 161.235, 327 150.050 C 356.181 125.828, 360 122.282, 360 119.414 C 360 116.294, 358.800 115.595, 344.959 110.658 C 338.107 108.214, 320.515 101.666, 305.867 96.107 C 291.219 90.548, 278.169 86.010, 276.867 86.021 C 275.375 86.035, 267.474 91.434, 255.500 100.621 M 251.853 119.284 C 236.809 130.990, 221.931 142.353, 218.791 144.534 C 215.651 146.715, 213.211 148.943, 213.369 149.484 C 213.695 150.603, 215.101 151.196, 250 164.952 C 264.025 170.481, 276.282 175.003, 277.237 175.002 C 278.192 175.001, 282.692 171.704, 287.237 167.676 C 295.867 160.026, 336.751 125.995, 340.399 123.424 C 343.123 121.504, 342.751 121.271, 327.500 115.352 C 320.900 112.791, 308.145 107.839, 299.156 104.347 C 290.168 100.856, 282.001 98, 281.009 98 C 280.017 98, 266.897 107.578, 251.853 119.284 M 412.844 154.777 C 401.566 169.813, 343.423 230.276, 319.743 251.592 L 311.986 258.575 312.243 329.537 C 312.463 390.152, 312.708 400.500, 313.924 400.500 C 315.169 400.500, 328.632 383.667, 364 337.890 C 369.225 331.127, 382.666 314.098, 393.869 300.047 C 405.072 285.996, 414.818 273.150, 415.527 271.500 C 416.519 269.192, 416.885 254.951, 417.111 209.786 C 417.274 177.494, 417.177 150.844, 416.897 150.563 C 416.616 150.283, 414.793 152.179, 412.844 154.777 M 198 154.388 C 198 155.238, 270.049 182.285, 270.667 181.666 C 272.069 180.265, 246.028 169.472, 218.648 160.106 C 202.280 154.508, 198 153.322, 198 154.388 M 138.006 204.988 C 136.901 207.053, 136.780 363.261, 137.874 375.500 L 138.500 382.500 144 385.285 L 149.500 388.071 150 332.785 L 150.500 277.500 152.837 273.741 C 155.628 269.252, 162.444 265, 166.849 265 C 168.594 265, 187.885 271.863, 209.717 280.250 C 248.867 295.291, 249.494 295.576, 255.365 301 C 258.875 304.243, 262.281 308.552, 263.665 311.500 L 266.013 316.500 265.957 374.500 L 265.902 432.500 272.505 432.418 C 277.904 432.350, 279.510 431.935, 281.304 430.140 L 283.500 427.945 283.797 349.223 C 283.960 305.925, 283.820 268.590, 283.486 266.255 C 282.526 259.539, 277.080 254.612, 267.250 251.563 L 265 250.865 265 263.982 C 265 278.799, 264.273 281.165, 258.327 285.698 C 252.169 290.393, 249.576 289.795, 212 275.001 C 193.575 267.747, 174.348 260.204, 169.273 258.237 C 158.841 254.196, 153.837 250.560, 150.971 244.943 C 149.247 241.563, 149 239.026, 149 224.662 C 149 206.789, 149.163 207.312, 142.756 204.658 C 139.239 203.201, 138.952 203.221, 138.006 204.988 M 163.073 228.635 C 160.689 231.665, 160.546 232.909, 162.172 236.478 C 163.612 239.639, 168.265 242.603, 173.234 243.524 C 176.652 244.158, 177.054 243.988, 177.996 241.511 C 179.355 237.937, 177.642 231.551, 174.476 228.385 C 171.105 225.014, 165.830 225.129, 163.073 228.635 M 186 231.826 C 186 234.561, 198.424 242.430, 206.855 245.036 C 214.957 247.540, 220.168 247.577, 222.368 245.146 C 223.983 243.361, 223.783 243.267, 217.029 242.639 C 209.070 241.900, 198.745 238.328, 191.938 233.960 C 187.103 230.857, 186 230.461, 186 231.826 M 185 239.375 C 185 240.131, 184.733 242.087, 184.406 243.721 C 183.888 246.311, 184.240 246.942, 187.156 248.652 C 191.813 251.382, 207.856 257.695, 212.214 258.512 C 216.099 259.241, 217.036 258.387, 218.336 252.928 C 218.937 250.404, 218.842 250.354, 213.153 250.197 C 204.475 249.958, 193.388 245.401, 188.594 240.104 C 186.401 237.681, 185 237.397, 185 239.375 M 157.621 245.454 C 158.379 247.431, 163.472 249.762, 184 257.524 C 193.625 261.164, 211.685 268.160, 224.134 273.071 C 246.399 281.855, 250 282.962, 250 281.026 C 250 279.538, 246.296 277.917, 223 269.210 C 211.175 264.791, 191.968 257.310, 180.318 252.587 C 168.667 247.864, 158.669 244, 158.099 244 C 157.529 244, 157.314 244.654, 157.621 245.454 M 229.302 251.501 C 224.679 254.739, 225.534 263.154, 230.792 266.174 C 236.083 269.211, 238.811 269.280, 241.643 266.448 C 248.861 259.230, 237.651 245.653, 229.302 251.501 M 160.946 276.562 L 157.500 280.124 157.857 334.812 C 158.198 386.933, 158.309 389.723, 160.227 394.242 C 162.917 400.581, 168.081 405.022, 177.064 408.720 C 181.154 410.403, 196.200 416.616, 210.500 422.525 C 249.682 438.717, 253.753 440.203, 255.858 439.076 C 257.565 438.162, 257.710 434.698, 258.331 379.781 C 258.698 347.363, 258.604 320.107, 258.120 318.419 C 256.690 313.434, 254.390 309.718, 250.257 305.717 C 246.886 302.455, 241.825 300.205, 213.424 289.347 C 195.316 282.424, 178.358 275.914, 175.739 274.880 C 168.411 271.986, 164.998 272.374, 160.946 276.562" stroke="none" fill="#009779" fill-rule="evenodd"/>
</svg>