<svg xmlns="http://www.w3.org/2000/svg" width="512" height="512" viewBox="0 0 512 512" version="1.1">
	<path d="M 65 115.287 L 62.500 116.558 61.740 197.029 C 60.775 299.208, 60.911 309.346, 63.286 311.717 C 64.964 313.393, 69.600 313.511, 140.286 313.688 C 181.654 313.791, 218.650 313.987, 222.500 314.124 L 229.500 314.373 221 314.936 C 213.146 315.457, 212.476 315.671, 212.180 317.750 L 211.861 320 250.930 320 C 273.990 320, 290 319.624, 290 319.082 C 290 315.595, 288.721 315, 281.226 315 C 277.069 315, 273.892 314.775, 274.167 314.500 C 274.442 314.224, 282.377 313.887, 291.799 313.750 C 306.702 313.532, 309.163 313.268, 310.715 311.715 C 312.385 310.044, 312.532 305.325, 313 238.215 L 313.500 166.500 316.250 166.184 L 319 165.867 319 173.979 C 319 181.258, 319.252 182.343, 321.455 184.545 L 323.909 187 346.705 186.986 C 359.242 186.979, 370.537 186.695, 371.804 186.356 C 373.583 185.879, 374.038 185.142, 373.804 183.119 L 373.500 180.500 352.298 180 C 337.246 179.645, 330.734 179.137, 329.848 178.250 C 328.850 177.250, 332.791 176.960, 349.550 176.800 C 373.721 176.570, 375.949 176.616, 376.690 177.357 C 377.867 178.534, 377.037 186.301, 375.561 187.932 C 373.643 190.052, 373.568 193.649, 375.371 197.104 L 376.730 199.708 372.365 199.345 C 368.098 198.989, 368 199.049, 368 201.990 L 368 205 383.500 205 L 399 205 399 202.500 C 399 200.033, 397.506 199.499, 391.250 199.731 C 389.692 199.789, 389.689 199.825, 391.494 196.364 C 393.319 192.864, 393.414 189.814, 391.750 188.152 C 391.063 187.466, 390.275 183.904, 390 180.236 C 389.532 174, 389.280 173.419, 386.102 171.284 C 382.778 169.050, 382.134 169, 356.434 169 C 341.985 169, 329.452 168.727, 328.582 168.393 C 327.338 167.916, 327 166.217, 327 160.450 C 327 149.516, 325.437 150, 360.768 150 L 390.091 150 392.545 152.455 C 394.875 154.785, 395 155.511, 395 166.763 C 395 175.638, 394.631 179.106, 393.532 180.559 C 390.469 184.609, 392.087 187, 397.891 187 C 403.778 187, 403.963 186.354, 404.244 164.792 C 404.465 147.776, 404.280 144.863, 402.888 143.466 C 401.465 142.037, 396.721 141.828, 362.250 141.674 C 325.142 141.509, 323.119 141.594, 321.111 143.405 C 319.674 144.701, 319 146.512, 319 149.073 C 319 154.365, 318.149 156, 315.393 156 L 313 156 313 137.155 C 313 119.267, 312.893 118.213, 310.895 116.405 C 308.853 114.557, 305.200 114.493, 188.145 114.258 C 92.183 114.066, 66.989 114.276, 65 115.287 M 72.588 123.857 C 72.297 124.329, 72.018 165.123, 71.968 214.510 C 71.894 287.572, 72.122 304.461, 73.189 305.138 C 73.910 305.595, 79.506 305.976, 85.625 305.985 L 96.749 306 94.827 302.115 C 92.637 297.689, 93.091 294.129, 96.202 291.324 C 97.885 289.805, 100.089 289.482, 109.362 289.391 C 115.488 289.331, 121.175 289.218, 122 289.140 C 122.998 289.045, 123.588 287.704, 123.764 285.136 L 124.028 281.276 119.345 280.634 C 112.587 279.708, 106.528 275.723, 101.509 268.906 C 96.341 261.885, 94.580 255.373, 95.156 245.415 C 95.899 232.574, 104.668 220.530, 116.531 216.057 C 124.876 212.910, 136.178 213.470, 143.881 217.412 C 151.055 221.084, 158.116 228.329, 162.117 236.125 C 164.947 241.639, 165.391 243.513, 165.405 250 C 165.425 258.907, 162.486 265.803, 155.684 272.811 C 150.213 278.447, 146.530 280.660, 140.468 281.955 C 137.736 282.538, 134.488 283.245, 133.250 283.527 C 131.691 283.881, 131 284.768, 131 286.416 C 131 288.776, 131.098 288.797, 143.587 289.147 C 155.948 289.494, 156.217 289.550, 158.587 292.306 C 161.077 295.201, 161.924 301.311, 160 302.500 C 159.450 302.840, 159 303.766, 159 304.559 C 159 305.783, 163.740 306, 190.500 306 C 207.825 306, 222 305.733, 222 305.408 C 222 305.082, 221.100 303.671, 220 302.273 C 217.320 298.866, 217.479 295.430, 220.455 292.455 C 222.819 290.090, 223.450 289.993, 237.705 289.811 C 245.842 289.707, 249.884 289.459, 246.687 289.259 C 241.360 288.927, 240.901 288.713, 241.187 286.698 C 241.387 285.297, 242.323 284.383, 243.771 284.178 L 246.042 283.855 245.771 264.178 L 245.500 244.500 237 244 C 229.118 243.536, 228.477 243.336, 228.180 241.246 C 227.837 238.830, 228.121 238.666, 235 237.300 C 238.277 236.649, 235.900 236.503, 226.250 236.763 L 213 237.121 213 233.560 C 213 230.405, 213.292 230, 215.566 230 C 216.977 230, 219.016 229.527, 220.097 228.948 C 222.046 227.905, 222.046 227.874, 220.032 225.313 C 217.100 221.586, 217.365 216.645, 220.635 214.073 C 223.161 212.085, 224.447 212, 251.885 212.004 C 278.357 212.007, 280.736 212.152, 283.655 213.931 C 287.692 216.393, 288.754 220.642, 286.446 225.105 C 284.848 228.195, 284.857 228.418, 286.633 229.643 C 290.367 232.220, 291 233.130, 291 235.923 C 291 238.027, 290.415 238.924, 288.750 239.370 C 284.956 240.386, 282 240.069, 282 238.645 C 282 237.190, 272.845 235.934, 263.500 236.107 C 255.435 236.256, 262.027 237.782, 271.250 237.900 C 278.596 237.995, 278.999 238.117, 278.985 240.250 C 278.957 244.372, 278.015 244.731, 269.500 243.869 C 265.100 243.424, 260.049 243.319, 258.275 243.636 C 254.332 244.342, 254.317 244.417, 253.507 267.175 L 252.914 283.850 255.197 284.175 C 257.795 284.545, 258.891 287.821, 256.848 289.115 C 256.052 289.620, 259.795 289.982, 266 289.999 C 277.678 290.033, 280.764 291.024, 282.870 295.416 C 284.057 297.891, 284.023 298.728, 282.620 301.671 C 281.729 303.539, 281 305.278, 281 305.534 C 281 306.308, 300.415 306.026, 301.599 305.235 C 302.369 304.720, 302.892 283.784, 303.347 235.250 L 303.997 166 300.433 166 C 298.472 166, 295.998 165.534, 294.934 164.965 C 290.396 162.536, 294.454 156, 300.500 156 L 304 156 304 141.071 C 304 128.833, 303.717 125.860, 302.429 124.571 C 301.018 123.161, 289.172 123, 186.988 123 C 124.359 123, 72.880 123.386, 72.588 123.857 M 274.496 130.365 C 273.258 132.256, 273.170 133.308, 274.060 135.615 C 274.780 137.482, 274.935 141.729, 274.500 147.656 C 273.898 155.855, 273.606 156.870, 271.707 157.366 C 270.541 157.671, 269.504 157.826, 269.402 157.710 C 269.301 157.595, 269.695 155.197, 270.279 152.383 C 271.215 147.872, 271.088 146.755, 269.206 142.952 C 267.091 138.677, 267.090 138.626, 269.036 137.262 C 270.116 136.506, 271 134.984, 271 133.880 C 271 130.915, 264.632 131.579, 264.201 134.589 L 263.903 136.679 259.282 134.339 C 249.848 129.563, 238.233 132.409, 232.911 140.802 C 227.668 149.069, 228.165 158.702, 234.191 165.564 C 238.431 170.394, 242.499 172.286, 248.645 172.286 C 254.599 172.286, 261.099 169.048, 265.395 163.943 C 267.959 160.895, 268 160.885, 268 163.258 C 268 164.677, 269.235 166.770, 271 168.342 C 275.670 172.504, 274.770 179, 269.523 179 C 266.636 179, 263 181.749, 263 183.932 C 263 186.868, 271.250 187.779, 284.904 186.352 C 290.441 185.774, 291.068 185.483, 290.800 183.627 C 290.593 182.193, 289.105 181.033, 286 179.885 L 281.500 178.220 281.651 172.860 C 281.734 169.912, 282.118 166.068, 282.504 164.317 C 282.997 162.087, 282.727 160.448, 281.604 158.845 C 280.399 157.125, 280 154.136, 280 146.837 C 280 141.436, 280.444 136.843, 281 136.500 C 282.390 135.641, 282.254 130.654, 280.800 129.200 C 278.896 127.296, 276.178 127.798, 274.496 130.365 M 193.075 130.409 C 191.122 132.762, 192.165 135.500, 195.014 135.500 C 197.107 135.500, 197.500 135.028, 197.500 132.514 C 197.500 129.138, 195.084 127.989, 193.075 130.409 M 102.925 136.549 C 97.490 138.223, 91.476 143.742, 88.897 149.419 C 81.956 164.703, 96.015 180.736, 113.139 177.064 C 122.853 174.980, 127.625 170.371, 130.049 160.729 C 132.596 150.594, 125.842 139.812, 114.911 136.566 C 108.724 134.729, 108.832 134.729, 102.925 136.549 M 173.487 139.741 C 161.871 143.892, 154.463 150.401, 149.769 160.580 C 147.867 164.705, 147.500 167.197, 147.500 176 C 147.500 185.594, 147.754 187.018, 150.442 192.500 C 154.198 200.163, 161.849 207.814, 169.500 211.561 C 174.980 214.245, 176.410 214.500, 186 214.500 C 195.455 214.500, 197.120 214.214, 202.722 211.626 C 210.361 208.097, 218.051 200.281, 221.781 192.253 C 224.045 187.380, 224.457 185.123, 224.477 177.500 C 224.498 169.407, 224.175 167.813, 221.272 161.685 C 217.404 153.517, 209.713 145.700, 201.417 141.502 C 193.971 137.735, 181.330 136.938, 173.487 139.741 M 100.748 141.069 C 92 145.687, 88.694 157.915, 93.912 166.357 C 97.314 171.863, 101.322 173.992, 108.290 173.996 C 119.365 174.003, 126.227 167.508, 126.417 156.838 C 126.514 151.417, 122.695 145.059, 117.065 141.265 C 112.814 138.400, 105.959 138.318, 100.748 141.069 M 104.256 141.074 C 96.547 143.404, 90.690 153.500, 92.995 160.485 C 94.521 165.108, 101.909 171.705, 106.533 172.572 C 115.090 174.178, 125.333 166.062, 125.333 157.676 C 125.333 152.686, 121.853 145.657, 118 142.866 C 114.885 140.610, 108.531 139.781, 104.256 141.074 M 259 142.813 C 259 144.812, 263.912 150, 265.805 150 C 267.683 150, 267.204 146.530, 264.927 143.635 C 262.521 140.576, 259 140.088, 259 142.813 M 175.324 144.375 C 169.221 146.378, 164.652 149.481, 159.702 154.987 C 148.745 167.174, 149.532 187.017, 161.459 199.265 C 174.579 212.738, 197.991 212.497, 210.655 198.758 C 229.212 178.627, 214.452 145.272, 186.176 143.438 C 182.065 143.172, 177.896 143.532, 175.324 144.375 M 247.272 146.211 C 242.350 148.586, 244.308 155, 249.955 155 C 255.082 155, 256.931 149.466, 252.777 146.557 C 250.231 144.773, 250.248 144.774, 247.272 146.211 M 175.296 148.387 C 167.814 150.833, 161.415 156.412, 157.900 163.551 C 155.010 169.422, 154.776 170.609, 155.207 177.240 C 155.951 188.714, 161.021 196.580, 171.204 202.061 C 176.885 205.118, 178.281 205.446, 185.500 205.417 C 194.316 205.382, 199.479 203.527, 206.217 197.973 C 215.196 190.572, 218.055 175.765, 212.643 164.703 C 206.331 151.801, 188.577 144.045, 175.296 148.387 M 104.200 152.200 C 102.198 154.202, 102.849 156.974, 105.617 158.235 C 107.941 159.294, 108.456 159.155, 110.206 156.995 C 112.174 154.563, 112.174 154.559, 109.977 152.780 C 107.404 150.696, 105.859 150.541, 104.200 152.200 M 117.388 153.016 C 112.910 154.749, 114.290 161.995, 118.824 160.556 C 120.018 160.177, 121.280 158.734, 121.627 157.349 C 122.447 154.084, 120.300 151.889, 117.388 153.016 M 180.415 165.421 C 176.005 167.342, 172.999 171.585, 173.004 175.885 C 173.016 187.409, 187.140 192.060, 195.806 183.394 C 198.956 180.244, 199.210 179.556, 198.745 175.432 C 198.169 170.320, 195.963 167.343, 191.282 165.362 C 187.292 163.673, 184.394 163.689, 180.415 165.421 M 262.250 170.662 C 260.209 171.486, 260.755 175.787, 262.991 176.497 C 265.666 177.346, 267 176.365, 267 173.548 C 267 171.751, 264.858 169.521, 263.668 170.079 C 263.576 170.122, 262.938 170.385, 262.250 170.662 M 248.219 184.750 C 247.823 185.713, 247.516 189.075, 247.535 192.223 C 247.573 198.648, 249.953 202.969, 254.090 204.127 C 257.131 204.977, 293.288 205.210, 295.418 204.393 C 296.288 204.059, 297 202.709, 297 201.393 L 297 199 276.571 199 C 252.590 199, 252.438 198.945, 253.249 190.558 C 253.518 187.776, 253.535 184.938, 253.286 184.250 C 252.612 182.388, 249.044 182.740, 248.219 184.750 M 112.299 186.503 C 111.119 187.330, 109.646 189.541, 109.027 191.417 C 107.512 196.008, 109.645 201.233, 113.782 203.064 C 116.352 204.202, 116.614 204.652, 115.637 206.255 C 114.091 208.794, 117.325 211.432, 120.138 209.926 C 122.361 208.737, 122.635 205, 120.500 205 C 119.675 205, 119 204.550, 119 204 C 119 203.450, 120.250 203, 121.777 203 C 126.541 203, 129 200.480, 129 195.598 C 129 190.966, 126.849 188.025, 123.421 187.968 C 122.365 187.951, 120.626 187.276, 119.559 186.468 C 117.088 184.599, 115.003 184.609, 112.299 186.503 M 119.441 196.433 C 117.921 197.554, 117.762 198.131, 118.708 199.090 C 119.660 200.057, 120.241 200.045, 121.458 199.035 C 123.081 197.688, 123.570 195, 122.191 195 C 121.746 195, 120.509 195.645, 119.441 196.433 M 224.152 202.715 C 222.866 205.119, 224.463 208, 227.081 208 C 229.483 208, 230.697 205.329, 229.302 203.114 C 227.835 200.784, 225.291 200.587, 224.152 202.715 M 133 207.500 C 133 209.782, 133.366 210.091, 135.750 209.816 C 137.728 209.589, 138.500 208.938, 138.500 207.500 C 138.500 206.062, 137.728 205.411, 135.750 205.184 C 133.366 204.909, 133 205.218, 133 207.500 M 107.475 207.041 C 107.084 207.674, 107.508 208.936, 108.418 209.846 C 109.873 211.301, 110.186 211.319, 111.020 210 C 111.541 209.175, 111.825 208.050, 111.651 207.500 C 111.184 206.026, 108.298 205.708, 107.475 207.041 M 344.283 206.959 C 326.659 207.431, 323.837 207.729, 322.283 209.285 C 320.624 210.947, 320.500 214.268, 320.500 256.999 C 320.500 299.730, 320.624 303.052, 322.283 304.714 C 323.829 306.263, 326.572 306.566, 342.953 307 C 353.341 307.275, 362.142 307.804, 362.512 308.175 C 362.881 308.546, 362.902 309.735, 362.558 310.817 C 362.025 312.497, 360.826 312.841, 354.368 313.167 C 348.432 313.467, 346.510 313.950, 345.440 315.413 C 344.465 316.747, 344.362 317.809, 345.081 319.151 C 346.036 320.936, 347.709 321.014, 379.792 320.763 C 413.112 320.503, 413.503 320.476, 413.798 318.412 C 414.228 315.403, 412.040 314.057, 405.373 313.229 C 399.920 312.552, 399.477 312.303, 399.184 309.750 L 398.867 307 417.299 307 C 434.431 307, 435.916 306.854, 438.365 304.927 L 441 302.855 441 257.382 L 441 211.909 438.711 209.620 C 436.482 207.392, 435.744 207.314, 410.549 206.666 C 384.213 205.988, 379.880 206.007, 344.283 206.959 M 146.011 208.487 C 144.565 210.229, 145.302 212.795, 147.490 213.635 C 149.434 214.381, 152 212.304, 152 209.985 C 152 208.391, 150.155 207, 148.041 207 C 147.603 207, 146.689 207.669, 146.011 208.487 M 159.040 218.452 C 157.157 220.721, 158.184 223.500, 160.905 223.500 C 163.658 223.500, 165.600 221.005, 164.691 218.636 C 163.913 216.609, 160.657 216.503, 159.040 218.452 M 225.667 218.667 C 224.478 219.855, 224.961 223.723, 226.452 224.960 C 228.200 226.411, 231.588 225.517, 232.404 223.389 C 233.743 219.901, 228.269 216.064, 225.667 218.667 M 274.714 219.619 C 273.323 221.010, 274.026 224.943, 275.838 225.913 C 276.849 226.455, 278.674 226.637, 279.892 226.318 C 281.676 225.851, 282.048 225.132, 281.804 222.619 C 281.545 219.958, 281.054 219.456, 278.464 219.203 C 276.794 219.039, 275.107 219.227, 274.714 219.619 M 335 252.490 L 335 286 357.455 286 L 379.909 286 377.455 288.455 C 375.600 290.309, 375 291.974, 375 295.263 C 375 300.781, 376.557 302.892, 381.180 303.642 C 384.275 304.144, 385.277 303.814, 387.545 301.545 C 389.807 299.284, 390.143 298.270, 389.647 295.210 C 389.321 293.206, 388.129 290.314, 386.998 288.783 L 384.940 286 405.984 286 L 427.027 286 426.763 252.750 L 426.500 219.500 380.750 219.240 L 335 218.980 335 252.490 M 203.709 223.624 C 203.319 224.014, 203 225.413, 203 226.733 C 203 228.761, 203.426 229.084, 205.750 228.816 C 207.932 228.565, 208.500 227.984, 208.500 226 C 208.500 224.245, 207.891 223.413, 206.459 223.208 C 205.336 223.047, 204.099 223.235, 203.709 223.624 M 130.557 226.223 C 128.100 229.729, 128.549 234.658, 131.500 236.592 C 133.816 238.109, 134.184 238.109, 136.500 236.592 C 138.319 235.400, 139 234.067, 139 231.699 C 139 225.087, 133.741 221.676, 130.557 226.223 M 363.384 228.442 C 363.080 229.234, 362.987 230.697, 363.178 231.692 C 363.498 233.355, 365.163 233.522, 383.936 233.771 C 397.360 233.950, 404.816 234.433, 405.719 235.182 C 406.812 236.089, 407.002 239.503, 406.651 251.911 C 406.409 260.485, 406.051 268.850, 405.855 270.500 C 405.533 273.219, 405.793 273.528, 408.625 273.804 C 414.653 274.391, 415 273.150, 415 251.001 L 415 231.145 412.365 229.073 C 409.874 227.113, 408.483 227, 386.834 227 C 367.816 227, 363.844 227.244, 363.384 228.442 M 184.238 235.162 C 182.618 236.782, 182.676 237.533, 184.569 239.427 C 186.726 241.583, 190.246 239.740, 189.811 236.682 C 189.455 234.182, 186.127 233.273, 184.238 235.162 M 87.011 236.487 C 86.332 237.305, 86.037 238.655, 86.357 239.487 C 87.110 241.451, 91.890 241.451, 92.643 239.487 C 93.306 237.760, 91.373 235, 89.500 235 C 88.810 235, 87.689 235.669, 87.011 236.487 M 347.224 252.250 L 347.500 267.500 356.750 267.788 L 366 268.075 366.009 257.788 C 366.013 252.129, 366.301 245.137, 366.648 242.250 L 367.279 237 357.113 237 L 346.948 237 347.224 252.250 M 111.174 240.314 C 108.352 243.318, 108.427 245.518, 111.455 248.545 C 114.308 251.399, 117.853 251.669, 124 249.500 C 129.577 247.532, 129.438 247.495, 130.543 251.250 C 131.485 254.448, 131.588 254.496, 137 254.275 C 141.505 254.090, 142.907 253.583, 144.750 251.469 C 150.974 244.331, 143.049 236.375, 135.154 241.836 C 133.694 242.846, 131.980 243.971, 131.345 244.336 C 130.710 244.702, 128.305 243.425, 126 241.500 C 120.736 237.102, 114.650 236.615, 111.174 240.314 M 214.998 239.218 C 213.899 239.613, 213 240.795, 213 241.846 C 213 242.896, 212.033 244.398, 210.851 245.183 L 208.701 246.610 211.351 249.260 C 214.539 252.448, 214.584 253.163, 211.942 258.621 C 210.044 262.541, 210.002 263.103, 211.405 265.815 C 212.766 268.449, 214.802 270, 216.897 270 C 218.351 270, 221 262.844, 221 258.916 C 221 254.680, 219.181 250.225, 216.566 248.055 C 214.508 246.347, 214.577 244.376, 216.723 243.553 C 217.903 243.100, 219.032 243.697, 220.306 245.446 C 223.606 249.976, 226 248.302, 226 241.465 C 226 238.105, 225.984 238.094, 221.498 238.297 C 219.023 238.408, 216.098 238.823, 214.998 239.218 M 376.296 238.744 C 380.583 238.932, 387.333 238.931, 391.296 238.742 C 395.258 238.552, 391.750 238.399, 383.500 238.400 C 375.250 238.401, 372.008 238.556, 376.296 238.744 M 176.667 239.667 C 175.483 240.850, 175.957 243.720, 177.555 245.045 C 178.853 246.123, 179.457 245.987, 181.222 244.222 C 182.987 242.457, 183.123 241.853, 182.045 240.555 C 180.720 238.957, 177.850 238.483, 176.667 239.667 M 190.500 242.505 C 183.405 245.019, 179.255 252.547, 180.392 260.842 C 181.618 269.788, 187.975 275.679, 197.568 276.761 C 202.450 277.311, 209 274.651, 209 272.118 C 209 268.742, 204.018 263.108, 198.997 260.804 C 196.248 259.543, 194 258.109, 194 257.616 C 194 256, 197.443 254.064, 200.374 254.032 L 203.248 254 202.784 248.408 C 202.148 240.745, 199.314 239.382, 190.500 242.505 M 152.250 243.662 C 151.563 243.940, 151 245.277, 151 246.634 C 151 248.505, 151.839 249.453, 154.468 250.551 C 159.397 252.610, 160 252.409, 160 248.700 C 160 243.810, 156.891 241.790, 152.250 243.662 M 169.468 248.101 C 168.623 250.764, 170.096 252.265, 173.135 251.835 C 174.867 251.590, 175.585 250.765, 175.816 248.750 C 176.099 246.291, 175.816 246, 173.134 246 C 170.965 246, 169.950 246.582, 169.468 248.101 M 83.667 248.667 C 82.458 249.876, 82.972 252.775, 84.500 253.362 C 86.952 254.302, 89 252.951, 89 250.393 C 89 248.553, 88.461 248, 86.667 248 C 85.383 248, 84.033 248.300, 83.667 248.667 M 157.393 259.058 C 154.174 266.233, 147.975 272.139, 141.266 274.425 C 131.411 277.783, 128.869 275.650, 132.024 266.671 C 133.492 262.495, 133.742 260.451, 133.017 258.546 C 130.881 252.926, 125.955 257.393, 123.535 267.145 C 122.032 273.199, 122.025 274.123, 123.445 277.524 L 125.005 281.257 130.125 280.578 C 141.398 279.082, 150.195 274.199, 155.487 266.500 C 158.293 262.417, 161.755 253, 160.450 253 C 160.264 253, 158.889 255.726, 157.393 259.058 M 171.667 257.667 C 169.167 260.167, 172.756 263.799, 176.359 262.416 C 178.137 261.734, 178.329 261.021, 177.393 258.582 C 176.789 257.009, 172.940 256.394, 171.667 257.667 M 268.848 263.152 C 266.772 265.228, 266.761 265.352, 268.544 266.656 C 269.979 267.705, 270.125 268.275, 269.196 269.204 C 267.370 271.030, 267.770 275.770, 269.933 277.933 C 274.428 282.428, 276.662 283.264, 280.712 281.967 C 289.402 279.184, 291.698 272.544, 285.956 266.802 C 283.291 264.138, 282.434 263.835, 279.071 264.373 C 275.793 264.897, 275.153 264.695, 274.709 262.993 C 274.028 260.391, 271.542 260.458, 268.848 263.152 M 371.500 262 C 371.100 262.647, 375.470 263, 383.882 263 C 391.470 263, 397.139 262.584, 397.500 262 C 397.900 261.353, 393.530 261, 385.118 261 C 377.530 261, 371.861 261.416, 371.500 262 M 90.200 265.200 C 88.632 266.768, 88.661 269.712, 90.250 270.282 C 93.795 271.553, 96.922 265.952, 93.418 264.607 C 91.404 263.834, 91.602 263.798, 90.200 265.200 M 370 271 L 370 274 382.433 274 C 393.968 274, 394.911 273.856, 395.497 272.009 C 395.845 270.914, 395.848 269.564, 395.506 269.009 C 395.140 268.418, 389.730 268, 382.441 268 L 370 268 370 271 M 276.449 276.056 C 273.925 278.845, 275.851 280.844, 279.473 279.194 C 282.475 277.826, 282.694 276.442, 280.126 275.067 C 278.679 274.293, 277.841 274.518, 276.449 276.056 M 100.357 278.513 C 99.694 280.240, 101.627 283, 103.500 283 C 104.190 283, 105.315 282.325, 106 281.500 C 106.993 280.303, 106.993 279.697, 106 278.500 C 104.391 276.562, 101.103 276.569, 100.357 278.513 M 235.224 284.173 C 235.736 285.707, 239.985 285.996, 240.031 284.500 C 240.048 283.950, 238.874 283.353, 237.422 283.173 C 235.578 282.945, 234.915 283.246, 235.224 284.173 M 260 284.563 C 260 285.719, 260.828 286.045, 263.173 285.813 C 267.757 285.361, 268.102 283, 263.583 283 C 261 283, 260 283.436, 260 284.563 M 98.768 297.610 C 97.743 299.860, 97.848 300.416, 99.532 301.647 C 102.319 303.685, 105.434 302.966, 105.827 300.195 C 106.547 295.117, 100.854 293.032, 98.768 297.610 M 149.200 296.200 C 146.688 298.712, 148.558 303, 152.165 303 C 153.135 303, 154.395 302.130, 154.965 301.066 C 156.304 298.564, 156.288 298.431, 154.429 296.571 C 152.550 294.692, 150.830 294.570, 149.200 296.200 M 225.046 296.445 C 223.135 298.747, 224.156 302.451, 226.805 302.827 C 231.422 303.481, 233.989 298.135, 230.066 296.035 C 227.473 294.647, 226.470 294.729, 225.046 296.445 M 271.930 297.584 C 269.181 300.897, 274.299 304.558, 277.377 301.481 C 278.605 300.252, 278.747 299.395, 277.963 297.931 C 276.711 295.592, 273.726 295.421, 271.930 297.584 M 89.379 316.455 C 89.067 317.268, 88.973 318.420, 89.171 319.014 C 89.421 319.764, 101.172 320.085, 127.516 320.062 L 165.500 320.030 165.500 317.765 L 165.500 315.500 127.723 315.238 C 95.139 315.012, 89.868 315.179, 89.379 316.455 M 35.401 323.860 C 26.456 324.799, 23.077 328.839, 28.223 332.443 C 30.218 333.841, 53.057 334, 251.612 334 C 463.643 334, 472.871 333.925, 475.016 332.188 C 477.959 329.805, 476.992 326.677, 472.713 324.734 C 469.929 323.469, 440.899 323.271, 255.500 323.247 C 137.800 323.233, 38.756 323.508, 35.401 323.860 M 179.643 389.028 C 172.037 391.307, 170.992 396.395, 177 401.887 C 179.200 403.898, 181 406.066, 181 406.704 C 181 408.303, 177.376 409.311, 174.353 408.553 C 172.192 408.010, 171.895 408.227, 172.176 410.145 C 172.812 414.501, 182.228 414.871, 186.750 410.718 C 190.045 407.692, 189.549 405.502, 184.300 399.890 C 179.369 394.618, 179.471 393.051, 184.750 393.015 C 187.403 392.997, 187.923 389.568, 185.418 388.607 C 183.563 387.895, 183.380 387.908, 179.643 389.028 M 292 391 C 292 393.683, 292.327 394.093, 294.250 393.820 C 295.898 393.585, 296.500 392.831, 296.500 391 C 296.500 389.169, 295.898 388.415, 294.250 388.180 C 292.327 387.907, 292 388.317, 292 391 M 189 395.628 C 189 395.974, 190.407 398.716, 192.127 401.721 C 194.929 406.619, 195.187 407.748, 194.618 412.593 L 193.983 418 196.946 418 C 199.595 418, 199.974 417.602, 200.522 414.250 C 201.860 406.059, 202.315 404.361, 204.122 400.790 C 206.487 396.117, 206.483 395, 204.098 395 C 203.052 395, 201.314 396.394, 200.235 398.097 L 198.274 401.194 196.069 398.097 C 194.638 396.088, 193.010 395, 191.432 395 C 190.094 395, 189 395.283, 189 395.628 M 210.046 397.800 C 206.256 401.591, 206.034 405.765, 209.413 409.694 C 211.402 412.006, 212.630 412.500, 216.391 412.500 C 222.552 412.500, 226.455 408.821, 226.455 403.013 C 226.455 397.792, 224.359 395.837, 218.121 395.238 C 213.540 394.797, 212.821 395.026, 210.046 397.800 M 228.917 395.412 C 228.688 395.639, 228.725 400.927, 229 407.162 L 229.500 418.500 232.496 418.500 C 235.342 418.500, 235.477 418.314, 235.174 414.801 L 234.856 411.102 238.354 411.670 C 243.274 412.468, 247 408.752, 247 403.045 C 247 396.603, 242.195 393.220, 236.995 396.003 C 235.743 396.673, 234.916 396.673, 234.502 396.003 C 233.898 395.026, 229.750 394.588, 228.917 395.412 M 249.848 396.250 C 249.646 396.938, 249.629 401.887, 249.809 407.250 C 250.127 416.693, 250.210 417, 252.462 417 C 255.172 417, 255.962 415.407, 256.100 409.668 C 256.241 403.760, 257.318 400.563, 259.294 400.182 C 260.734 399.905, 261 400.705, 261 405.320 C 261 409.382, 261.406 410.942, 262.582 411.393 C 266.058 412.727, 267 412.059, 267.014 408.250 C 267.032 403.076, 267.984 400, 269.567 400 C 270.489 400, 270.993 401.775, 271.200 405.750 C 271.481 411.137, 271.658 411.500, 274 411.500 C 276.267 411.500, 276.528 411.064, 276.802 406.830 C 277.134 401.685, 279.461 398.535, 281.061 401.064 C 281.561 401.854, 281.976 404.637, 281.985 407.250 C 281.999 411.572, 282.213 412, 284.362 412 C 286.477 412, 286.792 411.431, 287.363 406.567 C 287.714 403.579, 287.567 399.992, 287.036 398.595 C 285.883 395.562, 281.857 394.289, 278.399 395.864 C 276.552 396.706, 275.462 396.681, 273.994 395.764 C 272.460 394.806, 271.352 394.806, 268.813 395.764 C 266.678 396.570, 265.247 396.647, 264.592 395.992 C 263.219 394.619, 258.652 394.748, 257.200 396.200 C 256.267 397.133, 255.733 397.133, 254.800 396.200 C 253.231 394.631, 250.313 394.661, 249.848 396.250 M 291.210 403.250 C 291.497 411.425, 291.525 411.503, 294.250 411.816 L 297 412.133 297 403.566 L 297 395 293.960 395 L 290.919 395 291.210 403.250 M 305.357 395.992 C 302.484 397.151, 300 400.865, 300 404 C 300 407.645, 302.455 410.665, 306.503 412.001 C 314.830 414.749, 322.402 407.424, 319.379 399.545 C 317.984 395.910, 310.351 393.976, 305.357 395.992 M 322.621 395.804 C 322.348 396.246, 322.388 400.094, 322.711 404.356 C 323.288 411.986, 323.336 412.100, 325.898 411.802 C 328.200 411.535, 328.563 410.954, 329.045 406.755 C 330.060 397.928, 333.648 397.750, 334.190 406.500 C 334.477 411.121, 334.708 411.524, 337.250 411.816 C 339.994 412.132, 340 412.120, 340 405.789 C 340 396.331, 335.991 392.361, 330.498 396.378 C 328.897 397.549, 328.406 397.549, 327.235 396.378 C 325.708 394.851, 323.388 394.563, 322.621 395.804 M 214.571 400.571 C 211.897 403.246, 213.214 408, 216.629 408 C 218.273 408, 221 405.193, 221 403.500 C 221 401.994, 218.339 399, 217 399 C 216.529 399, 215.436 399.707, 214.571 400.571 M 236.200 401.200 C 233.859 403.541, 235.513 408, 238.721 408 C 239.448 408, 240.549 406.888, 241.168 405.530 C 242.984 401.544, 239.175 398.225, 236.200 401.200 M 307.040 401.452 C 305.589 403.200, 306.483 406.588, 308.611 407.404 C 310.757 408.228, 314 406.279, 314 404.165 C 314 400.403, 309.399 398.610, 307.040 401.452" stroke="none" fill="#009779" fill-rule="evenodd"/>
</svg>