<svg xmlns="http://www.w3.org/2000/svg" width="512" height="512" viewBox="0 0 512 512" version="1.1">
	<path d="M 230.500 23.165 C 187.287 28.043, 139.629 48.201, 104.500 76.460 C 94.101 84.826, 77.546 101.373, 69.444 111.500 C 43.684 143.697, 27.280 182.471, 21.848 224 C 19.955 238.472, 20.269 273.031, 22.424 287.500 C 28.961 331.386, 47.585 370.361, 76.750 401.191 L 85 409.912 85 415.874 C 85 424.782, 84.817 425, 77.348 425 C 71.845 425, 70.552 425.357, 68.455 427.455 C 65.449 430.460, 65.136 435.908, 67.829 438.345 C 69.499 439.856, 76.704 440, 150.869 440 L 232.080 440 235.885 436 C 239.362 432.345, 240.134 432, 244.833 432 C 249.771 432, 250.078 432.164, 252.579 436.126 L 255.184 440.251 272.092 439.811 C 288.066 439.396, 289 439.474, 289 441.231 C 289 444.137, 293.498 448, 296.882 448 C 300.807 448, 304.386 443.682, 303.479 440.043 C 302.385 435.659, 299.989 433.855, 295.538 434.067 C 293.317 434.172, 290.825 433.997, 290 433.678 C 289.175 433.359, 287.375 432.912, 286 432.685 C 284.625 432.458, 287.662 432.211, 292.750 432.136 C 302.478 431.993, 303.627 432.445, 306.609 437.588 C 307.680 439.436, 309.927 439.509, 373.338 439.771 L 438.958 440.042 441.083 437.917 C 443.831 435.169, 443.062 430.432, 439.336 427.156 C 437.038 425.136, 435.762 424.845, 430.085 425.049 C 420.533 425.393, 421 425.685, 421 419.381 L 421 413.761 429.490 404.840 C 450.375 382.893, 463.700 362.104, 474.433 334.722 C 484.380 309.344, 488.316 287.470, 488.419 257 C 488.557 216.076, 482.095 187.209, 465.026 152.500 C 452.002 126.018, 438.569 107.503, 417.866 87.500 C 380.420 51.321, 334.610 29.381, 284.201 23.484 C 270.442 21.875, 243.355 21.714, 230.500 23.165 M 226 44.072 C 190.892 48.683, 152.715 64.951, 119.740 89.351 C 113.100 94.265, 112.123 95.361, 112.970 96.944 C 114.300 99.429, 129.261 111.839, 133.585 114.043 C 141.197 117.924, 144.498 112.340, 141.379 100.855 C 140.711 98.398, 143.709 96, 147.449 96 C 152.263 96, 153.381 97.919, 152.597 104.844 C 151.460 114.898, 146.761 114, 200.485 114 C 239.267 114, 247.959 113.754, 248.891 112.631 C 249.701 111.655, 249.951 101.553, 249.763 77.381 L 249.500 43.500 241 43.359 C 236.325 43.282, 229.575 43.602, 226 44.072 M 261.558 43.907 C 260.667 45.347, 260.610 111.561, 261.498 112.997 C 262.236 114.191, 344.843 114.387, 346.711 113.200 C 347.492 112.703, 348.025 108.891, 348.211 102.465 C 348.478 93.263, 348.653 92.500, 350.500 92.500 C 352.323 92.500, 352.522 93.250, 352.751 101 C 353.161 114.918, 352.339 114, 364.392 114 L 374.745 114 381.123 108.910 C 391.536 100.598, 397.015 95.197, 396.445 93.803 C 394.985 90.236, 368.155 72.661, 351 64.036 C 325.222 51.075, 301.871 44.728, 274.900 43.350 C 265.586 42.875, 262.106 43.020, 261.558 43.907 M 395 108.581 C 382.396 119.448, 374.493 124.442, 370.341 124.162 L 366.756 123.921 369.338 126.990 C 372.411 130.642, 373.403 135.129, 372.785 142.581 C 372.224 149.341, 368.285 155.397, 362.500 158.394 C 357.567 160.949, 348.999 161.049, 344 158.611 C 341.795 157.535, 341.147 157.424, 342.250 158.312 C 344.597 160.201, 344.467 163.680, 342 165 C 337.285 167.524, 333.594 160.799, 338.001 157.712 C 339.999 156.312, 339.999 156.309, 337.968 154.471 C 334.839 151.639, 332.208 146.880, 331.137 142.114 C 330.026 137.171, 331.948 127.819, 334.700 124.779 C 336.241 123.076, 334.707 123.010, 298.905 123.228 C 278.332 123.353, 270.340 123.587, 281.145 123.748 C 296.925 123.984, 301.029 124.330, 302.007 125.508 C 304.314 128.288, 302.418 130, 297.031 130 L 292 130 292 146.845 C 292 162.420, 292.151 163.826, 294 165.500 C 298.629 169.689, 295.234 173, 286.312 173 C 279.996 173, 279.790 173.079, 280.424 175.250 C 282.958 183.925, 283.249 188.633, 281.601 194.302 C 280.682 197.461, 278.669 201.458, 277.127 203.184 C 274.417 206.217, 274.384 206.384, 276.139 208.139 C 277.137 209.137, 277.692 210.640, 277.370 211.477 C 276.867 212.789, 273.060 213, 249.952 213 C 235.193 213, 222.888 212.628, 222.607 212.174 C 222.326 211.719, 222.352 210.369, 222.665 209.174 C 223.125 207.413, 223.971 207, 227.117 207 C 229.252 207, 231 206.580, 231 206.066 C 231 205.553, 229.584 202.855, 227.854 200.072 C 223.944 193.783, 223.167 187.377, 225.387 179.742 C 226.274 176.689, 227 173.699, 227 173.096 C 227 172.365, 223.202 172, 215.607 172 C 206.230 172, 204.109 172.275, 203.618 173.553 C 203.214 174.606, 204.038 175.652, 206.176 176.803 C 215.915 182.043, 221.132 191.081, 218.997 199.012 C 216.570 208.024, 209.269 213.955, 200.566 213.984 C 187.753 214.026, 179.029 203.320, 181.433 190.504 C 182.188 186.483, 187.756 179.695, 192.175 177.410 C 193.828 176.555, 195 175.129, 195 173.974 C 195 172.123, 194.283 172, 183.500 172 C 177.175 172, 172.005 172.338, 172.011 172.750 C 172.017 173.162, 172.692 175.709, 173.511 178.409 C 175.960 186.483, 175.467 193.798, 172.013 200.609 C 170.370 203.849, 169.020 206.584, 169.013 206.687 C 169.006 206.789, 170.463 207.014, 172.250 207.187 C 174.958 207.448, 175.553 207.959, 175.816 210.250 L 176.133 213 148.566 213 L 121 213 121 210 C 121 207.238, 121.278 207, 124.500 207 C 126.425 207, 128 206.745, 128 206.433 C 128 206.122, 126.884 204.403, 125.520 202.615 C 120.215 195.660, 118.809 187.277, 121.466 178.447 C 123.192 172.712, 122.646 172.038, 116.250 172.015 C 112.062 172, 112 171.949, 112 168.500 L 112 165 118.250 164.956 C 128.677 164.884, 132.198 163.774, 137.335 158.939 L 142 154.550 142 141.750 L 142 128.950 139.250 127.976 C 137.738 127.440, 136.014 126.663, 135.421 126.251 C 130.405 122.761, 123.148 117.270, 114.846 110.684 C 107.899 105.173, 104.453 103.039, 103.159 103.449 C 100.797 104.199, 83.803 123.863, 75.460 135.500 C 67.118 147.137, 55.111 171.258, 50.074 186.500 C 42.885 208.257, 40 227.634, 40 254.173 C 40 290.174, 46.004 317.023, 60.553 346.086 C 67.041 359.048, 82.289 382, 84.410 382 C 84.735 382, 85 367.465, 85 349.700 C 85 325.911, 84.684 317.084, 83.800 316.200 C 83.016 315.416, 78.886 315, 71.889 315 L 61.178 315 58.589 311.923 C 57.165 310.231, 56 307.811, 56 306.546 C 56 302.384, 58.358 301.594, 72.051 301.167 C 80.352 300.908, 85.026 300.368, 85.303 299.634 C 85.539 299.010, 85.505 290.738, 85.227 281.250 C 84.761 265.274, 84.586 264, 82.862 264 C 81.838 264, 80.048 263.048, 78.884 261.884 C 77.034 260.034, 76.850 259.045, 77.420 254.005 C 77.949 249.331, 77.782 248.130, 76.536 247.652 C 74.924 247.034, 74.398 242.490, 75.836 241.601 C 76.790 241.012, 118.906 240.551, 119.417 241.125 C 121.046 242.953, 120.862 246.138, 119.021 247.979 C 117.173 249.827, 117.061 250.513, 118.021 254.080 C 119.406 259.223, 118.518 261.923, 115.043 263.135 C 112.540 264.008, 112.213 264.684, 111.637 270.197 C 111.287 273.550, 111 282.077, 111 289.147 L 111 302 128.929 302 C 143.894 302, 147.117 301.740, 148.429 300.429 C 150.314 298.543, 150.480 296.904, 148.750 297.250 C 147.959 297.408, 147.569 296.491, 147.688 294.750 C 147.859 292.255, 147.563 292, 144.495 292 C 138.745 292, 138 289.796, 138 272.777 L 138 258 160.250 257.999 L 182.500 257.997 182.184 276.231 C 182.011 286.260, 181.672 294.661, 181.433 294.901 C 181.193 295.140, 179.985 294.831, 178.748 294.214 C 177.512 293.596, 170.287 292.932, 162.694 292.738 C 150.883 292.436, 149.247 292.574, 151.375 293.689 C 154.198 295.168, 155.434 298.058, 154.500 301 C 154.005 302.560, 154.320 303, 155.933 303 C 157.605 303, 158 302.369, 158 299.700 C 158 297.885, 157.460 295.860, 156.800 295.200 C 155.867 294.267, 157.300 294, 163.248 294 L 170.896 294 169.846 297.013 C 168.648 300.447, 169.284 303, 171.337 303 C 172.219 303, 172.939 301.489, 173.284 298.917 C 173.585 296.672, 174.030 294.636, 174.273 294.394 C 175.390 293.277, 177.831 295.403, 178.337 297.934 C 178.700 299.752, 179.709 300.957, 181.199 301.356 C 182.465 301.695, 195.937 301.979, 211.139 301.986 L 238.777 302 239.420 298.576 C 240.282 293.978, 245.569 289.499, 252.754 287.277 C 257.101 285.933, 261.909 285.500, 272.500 285.500 C 285.598 285.500, 286.869 285.673, 292.224 288.183 C 297.886 290.837, 301.988 295.433, 301.996 299.133 C 302.002 301.559, 304.799 301.908, 319.139 301.270 L 332.143 300.692 331.821 292.596 L 331.500 284.500 337.476 284.193 C 340.763 284.025, 343.793 283.350, 344.211 282.693 C 344.628 282.037, 344.976 273.738, 344.985 264.250 L 345 247 333 247 L 321 247 321 251.430 C 321 255.264, 320.697 255.904, 318.750 256.180 C 316.202 256.542, 315.080 260.502, 316.999 262.365 C 317.880 263.221, 318.085 263.018, 317.834 261.536 C 317.268 258.207, 320.256 258.763, 325 262.870 C 329.480 266.749, 329.500 266.795, 329.500 273.328 C 329.500 279.445, 329.268 280.128, 326.072 283.426 C 319.897 289.797, 312.127 290.502, 305.893 285.257 C 298.127 278.722, 298.124 266.262, 305.888 263.046 C 308.415 262, 310.996 257.989, 311.001 255.101 C 311.002 254.770, 301.616 254.644, 290.143 254.821 C 271.598 255.106, 269.096 254.954, 267.589 253.446 C 266.657 252.514, 266.030 250.806, 266.197 249.650 C 266.746 245.846, 270.449 245.030, 287.250 245.015 C 300.720 245.002, 303 244.778, 303 243.469 C 303 241.322, 305.715 240.518, 307.621 242.100 C 308.957 243.209, 309.402 243.174, 310.358 241.887 C 311.352 240.549, 314.673 240.424, 336 240.925 L 360.500 241.500 360.500 244 C 360.500 246.226, 360.035 246.534, 356.250 246.807 L 352 247.115 352 265.442 L 352 283.770 357.500 284.457 C 360.525 284.835, 363.082 285.674, 363.183 286.322 C 363.284 286.970, 363.396 290.425, 363.433 294 L 363.500 300.500 381 300.500 L 398.500 300.500 398.500 295 L 398.500 289.500 395 289.449 C 392.215 289.408, 391.500 288.999, 391.500 287.449 C 391.500 285.647, 392.370 285.477, 403 285.201 C 418.803 284.789, 420.179 285.131, 422.700 290.095 C 425 294.624, 424.697 298, 421.990 298 C 419.808 298, 419 296.059, 419 290.811 C 419 287.374, 418.744 286.890, 417.250 287.495 C 416.288 287.885, 414.241 288.660, 412.702 289.217 C 410.070 290.169, 409.921 290.535, 410.202 295.365 L 410.500 300.500 430.217 301 C 446.464 301.412, 450.214 301.781, 451.525 303.094 C 453.587 305.159, 452.650 309.040, 449.338 312.155 C 447.055 314.303, 445.820 314.528, 434.672 314.838 C 427.978 315.024, 421.938 315.641, 421.250 316.210 C 420.294 317.002, 420 325.439, 420 352.122 C 420 371.305, 420.371 387, 420.825 387 C 421.279 387, 423.908 384.187, 426.667 380.750 C 450.289 351.316, 465.123 313.512, 469.078 272.663 C 470.926 253.569, 468.905 227.636, 463.881 206 C 458.439 182.565, 446.533 154.946, 433.193 134.808 C 422.279 118.333, 407.697 101.927, 404.083 102.057 C 403.213 102.089, 399.125 105.024, 395 108.581 M 177.318 123.749 C 189.868 123.908, 210.118 123.908, 222.318 123.749 C 234.518 123.590, 224.250 123.460, 199.500 123.460 C 174.750 123.460, 164.768 123.590, 177.318 123.749 M 196.500 129.984 L 153.500 130.500 153.237 141.500 C 153.092 147.550, 153.190 153.422, 153.455 154.548 C 153.720 155.675, 155.704 157.589, 157.863 158.803 C 160.023 160.017, 162.048 161.683, 162.364 162.505 C 162.858 163.794, 167.989 164, 199.615 164 L 236.293 164 241.896 160.316 C 244.978 158.290, 247.831 156.152, 248.235 155.566 C 248.639 154.980, 248.976 149.228, 248.985 142.785 C 248.999 132.218, 248.811 130.969, 247.066 130.035 C 246.002 129.466, 243.864 129.105, 242.316 129.234 C 240.767 129.362, 220.150 129.700, 196.500 129.984 M 261 143.278 L 261 156.620 267.327 160.810 C 272.430 164.189, 274.535 165, 278.205 165 C 280.860 165, 283.233 164.424, 283.904 163.616 C 284.689 162.670, 284.965 157.217, 284.776 146.366 L 284.500 130.500 272.750 130.218 L 261 129.937 261 143.278 M 391.200 133.200 C 389.184 135.216, 389.821 138.837, 392.500 140.592 C 394.816 142.109, 395.184 142.109, 397.500 140.592 C 401.928 137.691, 400.272 132, 395 132 C 393.570 132, 391.860 132.540, 391.200 133.200 M 321.831 146.250 C 318.785 148.704, 318.835 151.043, 321.995 153.996 C 324.337 156.183, 324.997 157.652, 324.985 160.651 C 324.966 165.344, 324.381 166.257, 320.349 167.887 C 314.038 170.438, 311.111 175.776, 312.957 181.369 C 314.965 187.455, 321.382 191.414, 327.380 190.268 C 328.847 189.987, 331.387 188.507, 333.024 186.978 C 335.561 184.607, 336 183.457, 336 179.176 C 336 175.254, 335.442 173.491, 333.456 171.130 C 332.057 169.467, 330.032 167.828, 328.956 167.486 C 327.312 166.964, 327.005 165.960, 327.032 161.183 C 327.051 157.780, 327.653 154.721, 328.532 153.559 C 330.616 150.804, 330.352 148.360, 327.777 146.557 C 325.088 144.673, 323.866 144.610, 321.831 146.250 M 349.200 177.200 C 346.577 179.823, 348.465 185, 352.045 185 C 352.950 185, 354.506 184.098, 355.504 182.996 C 359.186 178.927, 353.084 173.316, 349.200 177.200 M 338.364 188.493 C 338.018 189.396, 338.214 190.614, 338.800 191.200 C 340.324 192.724, 343.210 191.331, 342.812 189.265 C 342.369 186.963, 339.165 186.407, 338.364 188.493 M 266.200 231.200 C 264.570 232.830, 264.692 234.550, 266.571 236.429 C 267.882 237.739, 271.084 238, 285.828 238 C 295.555 238, 305.013 238.430, 306.846 238.956 C 309.664 239.764, 310.784 239.530, 314.090 237.443 C 318.103 234.910, 318.440 234.311, 317.393 231.582 C 316.862 230.198, 313.687 230, 292.093 230 C 274.221 230, 267.069 230.331, 266.200 231.200 M 374.011 233.882 C 369.453 234.690, 369.019 237.166, 372.947 239.962 L 376 242.136 376.015 260.318 C 376.025 272.952, 376.415 279.263, 377.293 281 L 378.556 283.500 406.028 284.020 C 427.439 284.426, 433.996 284.255, 435.750 283.247 C 437.964 281.975, 438 281.639, 437.991 262.227 L 437.982 242.500 441.048 239.979 C 445.836 236.042, 444.353 234.408, 435.297 233.642 C 425.923 232.850, 378.793 233.034, 374.011 233.882 M 421.325 247.485 C 419.430 248.812, 419.263 249.810, 419.470 258.569 C 419.703 268.420, 420.327 269.949, 424.128 269.985 C 427.311 270.015, 428.086 267.471, 427.789 257.970 C 427.538 249.959, 427.229 248.558, 425.454 247.382 C 423.719 246.233, 423.090 246.249, 421.325 247.485 M 134.214 248.186 C 132.171 250.229, 132.815 253.833, 135.542 255.619 C 137.843 257.127, 140.613 257.200, 164.846 256.386 C 187.995 255.608, 191.980 255.243, 194.365 253.680 C 196.246 252.448, 197.024 251.178, 196.811 249.687 L 196.500 247.500 165.964 247.236 C 143.051 247.038, 135.125 247.275, 134.214 248.186 M 93.250 248.779 L 80 249.058 80 251.529 L 80 254 97.032 254 C 113.776 254, 114.079 253.962, 114.916 251.750 C 115.384 250.512, 115.641 249.359, 115.487 249.187 C 114.998 248.640, 106.913 248.491, 93.250 248.779 M 195 260.918 C 195 265.329, 194.028 267, 191.463 267 C 189.814 267, 189.046 266.346, 188.820 264.750 C 188.616 263.317, 187.696 262.386, 186.285 262.185 C 183.349 261.767, 182.838 264.057, 183.207 276 L 183.500 285.500 186.250 285.816 C 188.433 286.068, 189 285.723, 189 284.148 C 189 278.284, 192.266 277.247, 194.018 282.555 C 195.550 287.195, 198.299 286.883, 199 281.989 C 199.484 278.613, 199.655 278.490, 204.296 278.193 C 208.361 277.933, 209.238 277.503, 210.048 275.374 C 210.573 273.992, 210.732 271.779, 210.400 270.457 C 209.815 268.125, 208.867 267.743, 201 266.660 C 200.080 266.534, 199.455 265.302, 199.385 263.477 C 199.185 258.320, 199.046 258, 197 258 C 195.457 258, 195 258.667, 195 260.918 M 394 261.908 C 385.441 262.441, 384.500 262.694, 384.500 264.455 C 384.500 267.081, 387.452 267.779, 399.059 267.900 C 405.938 267.972, 409.162 267.597, 410.559 266.561 C 412.294 265.275, 412.339 264.959, 410.987 263.583 C 408.985 261.548, 405.423 261.197, 394 261.908 M 94.714 263.620 C 94.321 264.012, 94 272.608, 94 282.721 L 94 301.110 98.750 300.805 L 103.500 300.500 103.500 282 L 103.500 263.500 99.464 263.203 C 97.244 263.040, 95.106 263.227, 94.714 263.620 M 148.538 275.348 C 144.822 278.066, 147.771 279, 160.059 279 C 171.108 279, 172 278.859, 172 277.107 C 172 274.462, 170.156 274, 159.609 274 C 153.447 274, 149.770 274.448, 148.538 275.348 M 384.598 285.736 C 383.585 286.748, 383.938 296.844, 385.009 297.506 C 385.564 297.848, 386.865 297.860, 387.901 297.531 C 390.199 296.802, 391.463 293, 389.406 293 C 388.474 293, 388 291.856, 388 289.607 C 388 286.459, 386.070 284.263, 384.598 285.736 M 424 287.871 C 424 293.123, 427.460 293.230, 428.164 288 C 428.427 286.043, 428.012 285.431, 426.250 285.180 C 424.344 284.910, 424 285.321, 424 287.871 M 308 315.592 C 308 315.918, 308.900 317.329, 310 318.727 C 311.306 320.388, 312 322.784, 312 325.635 C 312 329.818, 312.125 330, 315 330 C 317.838 330, 318 329.782, 318 325.966 C 318 322.416, 318.420 321.685, 321.500 319.867 C 325.815 317.322, 325.893 316.429, 321.875 315.625 C 317.909 314.832, 308 314.808, 308 315.592 M 341.032 315.945 C 341.049 316.250, 341.724 317.374, 342.532 318.441 C 346.297 323.419, 343.062 329.525, 335.372 331.958 L 330.500 333.500 330.500 378.500 L 330.500 423.500 355.500 423.500 L 380.500 423.500 380.759 370.559 C 380.912 339.336, 380.641 317.241, 380.099 316.699 C 379.129 315.729, 340.977 314.993, 341.032 315.945 M 397.259 316.250 C 395.716 318.205, 394.705 422.305, 396.214 423.814 C 397.495 425.095, 400.879 425.367, 403.418 424.393 C 404.833 423.850, 405 418.161, 405 370.428 C 405 318.698, 404.941 317.039, 403.066 316.035 C 400.485 314.654, 398.459 314.729, 397.259 316.250 M 100.607 317.582 C 100.273 318.452, 100 342.704, 100 371.475 C 100 429.670, 99.391 425, 106.975 425 C 109.528 425, 110.986 424.478, 111.393 423.418 C 112.490 420.559, 112.082 320.022, 110.965 317.934 C 109.614 315.410, 101.546 315.136, 100.607 317.582 M 140.432 317.111 C 140.054 317.722, 140.950 319.184, 142.423 320.361 C 143.998 321.618, 145.486 324.148, 146.034 326.500 C 146.585 328.869, 146.702 346.523, 146.320 369.792 L 145.675 409.083 149.536 413.037 C 152.610 416.184, 153.376 417.705, 153.297 420.495 L 153.198 424 185.099 424 L 217 424 217 371.200 C 217 331.467, 216.703 318.103, 215.800 317.200 C 214.154 315.554, 141.447 315.467, 140.432 317.111 M 232.725 319.875 C 232.326 321.731, 232 345.919, 232 373.625 L 232 424 236.465 424 C 239.856 424, 241.179 423.535, 241.965 422.066 C 242.630 420.823, 243 405.573, 243 379.428 L 243 338.724 239.077 334.468 C 235.225 330.289, 234.946 329.480, 233.739 319 C 233.485 316.797, 233.365 316.900, 232.725 319.875 M 317.572 345.071 C 313.305 348.253, 308.700 348.837, 303.148 346.902 C 300.517 345.984, 299.452 346.126, 296.680 347.761 C 294.856 348.838, 291.293 350.029, 288.763 350.408 C 283.413 351.211, 281.101 353.212, 282.950 355.440 C 283.910 356.596, 286.173 356.765, 294.435 356.297 C 300.095 355.976, 305.855 355.998, 307.236 356.344 C 310.558 357.178, 312.636 361.944, 311.006 364.989 C 309.870 367.111, 309.448 367.152, 292.172 366.830 C 271.625 366.446, 271.173 366.281, 267.228 357.730 C 264.967 352.830, 264.033 351.814, 261.033 350.992 C 259.090 350.460, 255.987 349.095, 254.137 347.958 C 252.288 346.822, 250.708 346.029, 250.627 346.196 C 250.545 346.363, 250.633 363.938, 250.822 385.250 L 251.165 424 257.582 424 C 263.994 424, 264 423.997, 264 421.107 C 264 417.568, 265.306 416.995, 273.332 417.015 C 280.760 417.034, 282.444 417.900, 281.782 421.361 L 281.290 423.935 300.068 423.884 C 312.725 423.850, 319.364 423.453, 320.436 422.667 C 321.852 421.628, 321.998 417.137, 321.763 381.821 L 321.500 342.142 317.572 345.071 M 239.455 436.455 C 236.456 439.453, 236.351 441.905, 239.073 445.365 C 243.414 450.884, 253.920 446.875, 252.419 440.271 C 251.005 434.051, 243.939 431.971, 239.455 436.455" stroke="none" fill="#009779" fill-rule="evenodd"/>
</svg>