<svg xmlns="http://www.w3.org/2000/svg" width="512" height="512" viewBox="0 0 512 512" version="1.1">
	<path d="M 378.724 52.134 C 377.147 53.017, 377 55.890, 377 85.931 L 377 118.763 372.420 119.916 C 369.901 120.550, 366.697 122.212, 365.301 123.608 C 363.183 125.726, 362.863 126.757, 363.370 129.823 C 363.704 131.846, 363.983 138.298, 363.989 144.163 L 364 154.826 367 153.694 L 370 152.562 370.015 140.031 C 370.024 133.139, 370.467 126.825, 371 126 C 371.650 124.994, 371.974 129.311, 371.985 139.120 L 372 153.741 364.250 156.470 C 347.730 162.288, 337.809 169.642, 332.389 180.089 C 330.094 184.513, 329.575 186.812, 329.541 192.697 C 329.495 200.839, 330.557 202.842, 333.957 201.023 C 335.783 200.046, 336.007 199.355, 335.368 196.680 C 334.247 191.993, 334.792 187.040, 336.811 183.584 C 339.535 178.920, 346.343 174.221, 351.497 173.448 C 355.649 172.826, 356 172.546, 356 169.862 C 356 166.641, 358.723 165, 364.065 165 L 367 165 367 184.500 L 367 204 360.250 204.020 C 353.684 204.039, 341.388 205.455, 337.645 206.623 C 336.009 207.133, 336.224 207.645, 339.466 210.965 L 343.141 214.729 381.522 214.916 L 419.903 215.104 422.598 211.031 C 424.080 208.792, 425.114 206.803, 424.896 206.613 C 423.880 205.724, 408.085 204, 400.959 204 L 393 204 393 184.559 C 393 173.866, 393.365 164.893, 393.810 164.617 C 394.256 164.342, 396.554 164.607, 398.917 165.207 C 403.080 166.264, 403.197 166.402, 402.670 169.649 C 402.187 172.621, 402.381 173, 404.381 173 C 409.213 173, 416.623 176.017, 419.665 179.223 C 424.861 184.697, 426.328 188.584, 425.650 195.078 C 425.115 200.195, 425.258 200.834, 427.040 201.300 C 429.930 202.056, 431.294 198.728, 430.807 192.110 C 429.586 175.543, 413.687 159.905, 393.908 155.820 C 389.567 154.924, 388.088 154.214, 388.472 153.212 C 388.762 152.456, 389 145.708, 389 138.218 C 389 120.604, 390.831 121.654, 391.218 139.491 C 391.493 152.136, 391.559 152.474, 393.967 153.672 C 395.323 154.348, 396.529 154.805, 396.646 154.688 C 396.763 154.570, 396.959 147.999, 397.082 140.083 C 397.340 123.528, 396.830 122.332, 388.528 120.008 L 384 118.740 384 85.905 C 384 55.475, 383.870 53.001, 382.224 52.120 C 381.098 51.517, 379.818 51.522, 378.724 52.134 M 129.667 52.667 C 129.300 53.033, 129 66.021, 129 81.527 C 129 97.034, 128.714 111.808, 128.364 114.358 C 127.770 118.695, 127.484 119.062, 123.959 120.011 C 121.886 120.569, 119.160 121.859, 117.902 122.878 C 115.686 124.672, 115.624 125.176, 115.887 139.111 C 116.036 147.020, 116.295 153.628, 116.461 153.795 C 116.628 153.961, 117.942 153.802, 119.382 153.440 L 122 152.783 122.015 140.142 C 122.024 133.189, 122.467 126.825, 123 126 C 123.650 124.994, 123.974 129.342, 123.985 139.208 L 124 153.915 116.750 156.056 C 100.987 160.710, 89.544 169.121, 84.218 179.967 C 81.994 184.494, 81.500 186.864, 81.500 193 C 81.500 200.333, 81.556 200.500, 84 200.500 C 86.447 200.500, 86.500 200.338, 86.500 192.925 C 86.500 186.218, 86.812 184.941, 89.229 181.770 C 92.958 176.876, 97.529 174.264, 103.824 173.429 C 107.567 172.932, 108.813 172.413, 108.063 171.663 C 105.019 168.619, 107.768 165.466, 114.003 164.847 L 117.500 164.500 117.771 184.095 L 118.041 203.690 104.726 204.292 C 97.402 204.623, 90.170 205.365, 88.654 205.941 L 85.897 206.990 89.087 210.958 L 92.276 214.927 130.523 214.976 L 168.771 215.025 171.885 211.478 C 173.598 209.527, 175 207.555, 175 207.096 C 175 205.891, 169.136 205.048, 155.750 204.327 L 144 203.695 144 184.406 C 144 173.798, 144.410 164.865, 144.910 164.555 C 145.411 164.246, 147.548 164.564, 149.660 165.263 C 153.063 166.389, 153.499 166.901, 153.490 169.766 C 153.482 172.553, 153.827 173.001, 155.990 173.006 C 161.295 173.017, 166.580 175.317, 170.645 179.382 C 176.517 185.254, 177.736 190.413, 175.340 199.250 C 174.977 200.589, 175.475 201, 177.457 201 C 182.997 201, 183.230 189.782, 177.913 179.141 C 172.567 168.444, 159.326 159.007, 145.238 155.854 L 139.746 154.625 140.366 148.062 C 140.707 144.453, 140.989 137.761, 140.993 133.191 C 140.997 127.908, 141.364 125.107, 142 125.500 C 142.583 125.861, 143 131.518, 143 139.080 C 143 151.942, 143.019 152.052, 145.504 153.184 C 146.882 153.811, 148.207 154.127, 148.449 153.884 C 148.691 153.642, 148.977 147.011, 149.085 139.148 C 149.309 122.749, 149.335 122.809, 140.859 120.036 L 135.500 118.283 135.500 86.392 C 135.500 68.851, 135.136 53.938, 134.691 53.250 C 133.828 51.916, 130.772 51.561, 129.667 52.667 M 250.500 60.658 C 242.632 61.594, 235.480 64.532, 231.284 68.552 C 227.559 72.122, 227 73.210, 227 76.894 C 227 81.500, 228.086 84.217, 231.375 87.842 L 233.500 90.184 234 84.920 C 234.294 81.820, 235.043 79.477, 235.820 79.221 C 236.888 78.870, 237.063 81.928, 236.738 95.253 C 236.375 110.127, 236.121 112.068, 234.112 115.318 C 231.880 118.930, 223.396 126.091, 215 131.449 C 202.758 139.262, 196.093 147.409, 193.463 157.778 C 192.170 162.874, 192.079 165.062, 192.979 169.397 C 193.588 172.334, 194.715 175.584, 195.482 176.618 C 196.809 178.407, 196.965 178.414, 198.643 176.760 C 200.166 175.259, 200.243 174.562, 199.204 171.689 C 196.815 165.082, 198.045 157.753, 202.317 153.144 C 205.474 149.737, 207.998 149.066, 213.566 150.153 C 216.280 150.683, 222.772 151.671, 227.994 152.350 C 235.217 153.288, 237.562 153.963, 237.794 155.171 C 237.993 156.201, 237.118 157.003, 235.300 157.457 C 229.498 158.905, 227.338 163.421, 230.468 167.559 C 232.626 170.411, 232.383 170.846, 228.250 171.533 C 218.636 173.134, 200 180.703, 200 183.008 C 200 184.495, 207.832 189.949, 213.864 192.662 C 224.163 197.296, 231.793 198.370, 254.500 198.384 C 276.692 198.398, 283.276 197.530, 295.282 193.009 C 301.004 190.855, 309.006 185.524, 309.704 183.401 C 310.209 181.866, 299.134 177.055, 289.036 174.423 C 284.381 173.209, 280.435 171.804, 280.267 171.300 C 280.099 170.797, 281.095 169.320, 282.481 168.018 C 283.866 166.716, 285 164.665, 285 163.461 C 285 160.809, 281.408 156, 279.427 156 C 277.442 156, 277.641 154.254, 279.750 153.174 C 280.712 152.681, 285.835 151.276, 291.134 150.053 C 300.058 147.993, 300.991 147.944, 303.796 149.394 C 310.070 152.639, 313.663 160.164, 312.627 167.888 C 312.287 170.424, 311.894 173.400, 311.754 174.500 C 311.574 175.917, 312.082 176.500, 313.496 176.500 C 316.355 176.500, 318.294 170.067, 317.722 162.481 C 316.827 150.633, 310.018 141.411, 294.448 130.965 C 284.286 124.147, 276.110 116.135, 274.850 111.758 C 274.492 110.516, 274.155 102.825, 274.100 94.667 C 274.023 83.214, 274.285 79.926, 275.250 80.241 C 275.938 80.465, 276.965 82.542, 277.533 84.856 L 278.566 89.063 281.363 86.143 C 285.220 82.117, 285.945 76.265, 283.148 71.739 C 278.811 64.722, 262.597 59.219, 250.500 60.658 M 248.413 89.943 C 243.042 91.227, 243 91.335, 243 103.933 L 243 115.749 236 121.070 C 232.150 123.997, 229 126.463, 229 126.550 C 229 126.636, 231.363 126.041, 234.250 125.226 C 241.851 123.083, 266.492 123.074, 274.994 125.212 L 281.488 126.845 277.442 123.172 C 275.216 121.153, 272.182 118.490, 270.698 117.257 C 268.043 115.049, 268 114.823, 268 103.054 L 268 91.094 264.250 90.053 C 260.038 88.883, 253.050 88.834, 248.413 89.943 M 236.500 187.415 C 235.950 187.615, 232.865 188.321, 229.645 188.985 C 226.425 189.648, 224.175 190.571, 224.645 191.037 C 227.320 193.686, 260.963 194.945, 274.308 192.895 C 284.053 191.399, 285.219 190.588, 279.859 189.037 C 275.885 187.886, 238.996 186.507, 236.500 187.415 M 106.795 207.970 C 98.619 209.014, 96.264 210.189, 100.500 211.110 C 105.914 212.289, 150.986 212.063, 157.918 210.823 C 164.361 209.670, 164.426 209.628, 161 208.818 C 155.899 207.612, 114.651 206.967, 106.795 207.970 M 360 207.879 C 356.425 208.287, 352.624 209.110, 351.554 209.710 C 349.934 210.617, 350.686 210.914, 356.054 211.485 C 364.679 212.404, 409.996 211.641, 412.410 210.537 C 414.201 209.718, 414.170 209.606, 411.910 208.750 C 408.821 207.580, 368.555 206.905, 360 207.879 M 330.684 244.649 C 329.837 245.497, 329.789 250.287, 330.607 252.418 C 331.045 253.561, 332.565 254, 336.079 254 L 340.944 254 341.222 267.750 L 341.500 281.500 344.250 281.816 C 346.789 282.109, 347 282.473, 347 286.566 L 347 291 339.500 291 C 332.800 291, 332 291.203, 332 292.899 C 332 294.509, 333.026 294.900, 338.762 295.476 C 342.481 295.850, 347.093 296.501, 349.012 296.924 L 352.500 297.693 347.500 298.427 C 344.750 298.831, 338.675 299.799, 334 300.578 C 327.430 301.672, 313.640 301.994, 273.269 301.997 L 221.038 302 221.643 297.586 C 222.201 293.516, 222.063 293.137, 219.874 292.722 C 218.568 292.475, 221.213 292.211, 225.750 292.136 L 234 292 234 288.500 L 234 285 212.500 285 C 193.037 285, 187.941 284.388, 192.582 282.607 C 193.452 282.273, 195.235 282, 196.546 282 C 198.872 282, 198.934 281.774, 199.214 272.250 L 199.500 262.500 204.922 262 C 207.905 261.725, 210.508 261.003, 210.707 260.396 C 211.321 258.525, 200.502 258, 161.353 258 L 124 258 124 270.456 L 124 282.912 131.250 283.206 C 138.485 283.499, 138.501 283.506, 138.840 286.497 C 139.245 290.064, 140.678 291.214, 143.802 290.478 C 145.835 289.999, 145.981 290.166, 145.052 291.902 C 143.337 295.107, 143.815 296, 147.250 296.009 C 154.742 296.029, 161 297.277, 161 298.751 C 161 299.865, 160.211 300.080, 157.750 299.636 C 155.963 299.313, 149.100 298.360, 142.500 297.519 C 135.900 296.677, 122.454 294.835, 112.620 293.425 C 101.913 291.889, 94.376 291.224, 93.832 291.768 C 92.392 293.208, 94.015 300.876, 95.873 301.415 C 96.768 301.674, 100.345 302.427, 103.823 303.087 C 107.301 303.748, 110.797 304.940, 111.592 305.735 C 112.822 306.965, 112.986 314.276, 112.690 354.840 C 112.324 404.975, 111.716 412.293, 107.671 415.251 C 105.772 416.640, 103.841 423.183, 104.878 424.717 C 105.220 425.223, 122.053 434.044, 142.285 444.319 L 179.071 463 251.893 463 L 324.715 463 352.107 449.622 C 367.173 442.263, 385.125 433.879, 392 430.989 C 398.875 428.099, 404.870 425.401, 405.323 424.994 C 406.579 423.864, 404.266 416.550, 402.004 414.504 C 400.806 413.419, 400 411.422, 400 409.536 C 400 407.802, 399.339 405.509, 398.532 404.441 C 397.289 402.797, 397.059 395.039, 397.032 353.817 C 397.001 306.267, 397.046 305.120, 398.968 304.510 C 400.050 304.167, 403.987 303.325, 407.718 302.639 L 414.500 301.392 414.805 296.696 C 415.108 292.021, 415.095 292, 411.926 292 C 410.175 292, 398.618 293.143, 386.244 294.540 C 373.870 295.937, 363.466 296.787, 363.123 296.430 C 362.780 296.073, 363.624 295.043, 364.998 294.141 C 366.372 293.238, 368.509 291.422, 369.748 290.104 C 371.895 287.820, 372 286.942, 372 271.354 C 372 255.066, 372.009 255, 374.250 254.985 C 378.150 254.958, 379.153 253.622, 378.815 248.901 L 378.500 244.500 354.934 244.232 C 341.973 244.085, 331.061 244.273, 330.684 244.649 M 347 265.441 C 347 275.105, 347.856 278.473, 349.817 276.519 C 350.192 276.145, 350.653 271.150, 350.841 265.419 C 351.169 255.407, 351.100 255, 349.091 255 C 347.103 255, 347 255.515, 347 265.441 M 357 266 C 357 275.111, 357.258 277, 358.500 277 C 359.742 277, 360 275.111, 360 266 C 360 256.889, 359.742 255, 358.500 255 C 357.258 255, 357 256.889, 357 266 M 147 270.427 C 147 275.142, 147.380 279, 147.845 279 C 149.676 279, 152.193 274.959, 152.624 271.328 C 153.139 266.989, 151.302 262.682, 148.725 262.186 C 147.200 261.892, 147 262.847, 147 270.427 M 190.403 264.157 C 189.528 265.573, 189.574 273.083, 190.476 275.924 C 191.456 279.011, 193.745 278.436, 194.520 274.908 C 195.481 270.534, 194.201 263, 192.498 263 C 191.739 263, 190.796 263.521, 190.403 264.157 M 150 283.911 L 145.500 284.521 148.867 285.259 C 153.180 286.204, 184 284.962, 184 283.844 C 184 282.903, 157.036 282.956, 150 283.911 M 166.500 290.963 C 156.731 291.272, 150.563 291.813, 152 292.236 C 156.895 293.678, 195 292.446, 195 290.846 C 195 290.381, 192.412 290.096, 189.250 290.213 C 186.088 290.331, 175.850 290.668, 166.500 290.963 M 170.250 297.706 C 166.876 298.356, 167.527 300.824, 171.250 301.497 C 173.037 301.821, 183.725 301.953, 195 301.793 C 215.397 301.501, 215.502 301.489, 215.820 299.250 L 216.139 297 194.320 297.136 C 182.319 297.211, 171.488 297.467, 170.250 297.706 M 125 360.474 L 125 413.949 127.950 415.474 C 129.573 416.313, 131.148 417, 131.450 417 C 131.753 417, 132 392.716, 132 363.035 C 132 310.705, 131.941 309.039, 130.066 308.035 C 124.750 305.190, 125 302.601, 125 360.474 M 379.750 307.679 C 378.110 308.117, 378 311.586, 378 362.641 L 378 417.135 380.250 416.445 C 385.210 414.924, 385.034 417.110, 384.759 360.634 C 384.481 303.692, 384.732 306.347, 379.750 307.679 M 364 309.668 C 362.625 309.897, 354.075 311.205, 345 312.575 C 335.925 313.945, 327.712 315.306, 326.750 315.600 C 325.108 316.102, 325 319.931, 325 377.581 L 325 439.027 328.750 437.422 C 330.813 436.540, 340.375 432.659, 350 428.799 C 359.625 424.938, 368.066 421.321, 368.758 420.760 C 369.748 419.959, 369.962 407.961, 369.758 364.634 C 369.477 304.644, 369.901 308.687, 364 309.668 M 139 364.878 C 139 409.749, 139.246 419.960, 140.351 420.876 C 142.809 422.916, 178.487 438.799, 179.138 438.143 C 179.489 437.789, 179.537 410.580, 179.245 377.678 C 178.667 312.683, 178.894 315, 173.127 315 C 171.625 315, 164.120 313.877, 156.448 312.504 C 148.777 311.132, 141.713 310.007, 140.750 310.004 C 139.105 310, 139 313.278, 139 364.878 M 192 377.878 C 192 426.248, 192.273 439.946, 193.250 440.628 C 193.940 441.109, 220.838 441.359, 253.250 441.185 L 312 440.870 312 378.435 L 312 316 252 316 L 192 316 192 377.878 M 210 348.106 C 204.026 350.454, 204.047 350.320, 204.022 387.673 L 204 421.846 207.018 424.865 C 209.078 426.924, 211.452 428.095, 214.491 428.551 C 216.941 428.918, 235.495 429.045, 255.723 428.833 C 296.464 428.406, 296.626 428.380, 298.925 421.785 C 299.606 419.831, 300 406.818, 300 386.274 L 300 353.846 297.077 350.923 C 295.469 349.315, 293.107 348.006, 291.827 348.014 C 290.547 348.022, 272.175 347.825, 251 347.576 C 227.024 347.294, 211.557 347.494, 210 348.106 M 211.200 354.200 C 209.414 355.986, 209.494 418.926, 211.285 421.375 C 212.475 423.003, 215.483 423.126, 252.035 423.048 C 287.698 422.971, 291.620 422.802, 292.750 421.290 C 293.688 420.035, 294 411.728, 294 387.964 C 294 358.568, 293.870 356.192, 292.171 354.655 C 290.535 353.175, 286.231 353, 251.371 353 C 222.394 353, 212.092 353.308, 211.200 354.200" stroke="none" fill="#009779" fill-rule="evenodd"/>
</svg>