<svg xmlns="http://www.w3.org/2000/svg" width="512" height="512" viewBox="0 0 512 512" version="1.1">
	<path d="M 0 256.002 L 0 512.004 256.250 511.752 L 512.500 511.500 512.752 255.750 L 513.004 0 256.502 0 L 0 0 0 256.002 M 0.492 256.500 C 0.492 397.300, 0.608 454.751, 0.750 384.170 C 0.892 313.588, 0.892 198.388, 0.750 128.170 C 0.608 57.951, 0.492 115.700, 0.492 256.500 M 10.455 10.455 L 7.988 12.921 8.244 255.856 C 8.494 493.157, 8.544 498.839, 10.405 500.895 L 12.310 503 255.200 503 L 498.091 503 500.545 500.545 L 503 498.091 503 255.656 C 503 18.448, 502.959 13.171, 501.088 10.861 L 499.177 8.500 256.049 8.244 L 12.921 7.988 10.455 10.455 M 301.500 18.483 C 288.622 22.309, 277.531 26.415, 242 40.510 C 191.512 60.538, 164.776 72.869, 144.469 85.492 C 130.828 93.972, 130.997 93.678, 131.014 108.806 C 131.027 121.567, 131.549 126, 133.037 126 C 133.479 126, 134.157 124.538, 134.543 122.750 C 135.555 118.059, 138.390 112.904, 141.658 109.811 C 147.421 104.359, 182.217 88.824, 222.907 73.539 C 238.083 67.837, 259.432 59.773, 270.350 55.619 C 301.226 43.868, 306.371 43.665, 318.766 53.704 C 326.443 59.923, 326 55.415, 326 127.254 L 326 191.608 322.442 195.054 L 318.884 198.500 319.574 296 C 320.080 367.519, 319.961 394.597, 319.129 397.617 C 318.505 399.881, 315.858 404.663, 313.247 408.243 C 310.636 411.823, 301.823 424.477, 293.662 436.364 C 275.407 462.954, 274.480 464, 269.161 464 C 266.874 464, 249.600 459.258, 229.312 453.061 C 209.616 447.045, 189.575 440.960, 184.778 439.538 C 179.982 438.116, 174.945 435.951, 173.586 434.727 C 172.228 433.502, 168.123 425.750, 164.466 417.500 C 156.684 399.946, 149.339 385.638, 142.439 374.594 L 137.500 366.688 137 292.371 C 136.500 218.060, 136.500 218.054, 134.357 215.912 L 132.215 213.770 131.638 226.135 C 131.321 232.936, 130.825 283.186, 130.536 337.801 L 130.012 437.103 132.396 439.487 C 133.708 440.799, 139.218 444.091, 144.640 446.804 C 170.994 459.988, 259.777 489.837, 298.120 498.404 C 311.880 501.478, 317.298 501.639, 323.807 499.165 C 328.995 497.194, 373.295 470.892, 407.500 449.474 C 419.050 442.242, 430.750 435.052, 433.500 433.496 C 436.250 431.941, 439.512 429.764, 440.750 428.660 L 443 426.651 442.965 277.576 C 442.937 162.492, 442.652 128.028, 441.715 126.428 C 441.047 125.288, 438.476 122.588, 436.003 120.428 C 433.529 118.268, 425.008 110.650, 417.067 103.500 C 409.126 96.350, 398.550 86.917, 393.565 82.539 C 372.120 63.704, 352.552 45.727, 339.500 32.869 C 331.204 24.696, 323.985 18.450, 321.782 17.538 C 316.662 15.420, 310.909 15.688, 301.500 18.483 M 282.500 59.098 C 278.100 60.748, 265.725 65.193, 255 68.975 C 219.397 81.530, 210.481 84.778, 182.380 95.424 C 141.826 110.789, 139.332 112.257, 137.063 122.100 C 135.677 128.115, 135.674 210.285, 137.060 215.277 C 138.450 220.282, 143.243 225.595, 147.695 227.064 C 152.057 228.504, 154.487 228.303, 196 223.061 C 241.241 217.349, 249.544 216.333, 273.866 213.529 C 296.622 210.906, 300.018 209.930, 307.284 203.925 C 309.366 202.205, 312.178 198.608, 313.534 195.932 L 316 191.066 315.978 130.783 C 315.957 74.313, 315.839 70.247, 314.110 66.500 C 309.102 55.649, 298.386 53.139, 282.500 59.098 M 368.138 185.828 C 368.346 257.161, 368.831 301.305, 369.392 300.048 C 370.184 298.272, 371.216 298, 377.153 298 L 384 298 384 301.939 C 384 305.840, 383.957 305.884, 379.500 306.552 C 377.025 306.923, 373.597 307.021, 371.882 306.769 L 368.765 306.312 369.132 385.030 L 369.500 463.749 374 460.729 C 376.475 459.069, 379.963 456.337, 381.750 454.659 L 385 451.608 385 413.219 L 385 374.831 378.639 380.415 C 375.141 383.487, 371.766 386, 371.139 386 C 370.429 386, 370 383.988, 370 380.661 C 370 376.099, 370.328 375.169, 372.250 374.279 C 375.748 372.658, 385.165 364.832, 384.463 364.129 C 384.118 363.783, 381.060 363.275, 377.668 363 L 371.500 362.500 371.500 356.065 L 371.500 349.631 376.500 348.358 C 379.250 347.658, 382.288 346.117, 383.250 344.932 C 385.169 342.571, 385.517 335.622, 384.087 328.228 C 383.628 325.856, 383.647 323.718, 384.130 323.419 C 385.195 322.761, 385.301 312, 384.243 312 C 383.826 312, 383.640 313.938, 383.828 316.307 C 384.232 321.379, 382.975 322.804, 377.793 323.153 C 372.583 323.504, 371 321.739, 371 315.578 C 371 309.565, 372.164 308, 376.635 308 C 378.414 308, 381.024 307.561, 382.435 307.025 C 384.761 306.140, 385 305.535, 385 300.525 C 385 295.280, 384.872 295, 382.468 295 C 378.747 295, 373.320 292.466, 372.080 290.150 C 369.198 284.765, 371.753 275.388, 375.871 276.235 C 377.167 276.501, 377.435 277.586, 377.182 281.535 C 376.971 284.847, 377.198 286.167, 377.866 285.500 C 378.416 284.950, 379.009 282.700, 379.183 280.500 C 379.401 277.752, 379.969 276.500, 381 276.500 C 382.154 276.500, 382.568 278.036, 382.793 283.152 C 383.079 289.633, 383.015 289.831, 380.293 290.823 C 378.436 291.501, 378.108 291.869, 379.316 291.921 C 380.314 291.964, 382.002 291.534, 383.066 290.965 C 384.959 289.952, 385 287.767, 384.985 188.715 C 384.974 110.367, 384.691 86.960, 383.735 85.111 C 383.056 83.797, 379.192 79.760, 375.149 76.140 L 367.797 69.559 368.138 185.828 M 272.374 143.985 C 268.834 145.415, 263.396 151.733, 262.162 155.852 C 260.390 161.766, 260.743 165.138, 263.750 171.033 C 272.594 188.375, 297.885 181.563, 297.978 161.815 C 297.990 159.238, 297.521 155.863, 296.936 154.315 C 295.633 150.866, 291.425 146.305, 287.800 144.411 C 284.850 142.870, 275.758 142.619, 272.374 143.985 M 206.500 201.489 C 202.650 202.169, 198.713 203.061, 197.750 203.470 C 195.035 204.624, 195.471 210.154, 198.501 213.001 C 200.936 215.289, 201.242 215.324, 210.017 214.317 C 220.592 213.103, 223 211.569, 223 206.045 C 223 199.672, 220.573 199.002, 206.500 201.489 M 211.316 228.943 C 200.467 233.869, 197.741 249.941, 206.133 259.499 C 209.553 263.394, 215.480 265.493, 220.158 264.465 C 227.064 262.948, 233.957 253.473, 233.955 245.500 C 233.953 239.319, 229.484 231.996, 224.038 229.250 C 218.637 226.526, 216.741 226.481, 211.316 228.943 M 169.775 231.376 C 161.127 232.571, 153.652 233.988, 153.164 234.525 C 152.649 235.092, 152.650 236.861, 153.168 238.750 C 154.011 241.833, 154.300 242, 158.779 241.997 C 163.499 241.994, 179.530 240.361, 183.722 239.456 C 186.276 238.904, 189.525 235.731, 191.611 231.750 L 193.051 229 189.276 229.101 C 187.199 229.157, 178.424 230.181, 169.775 231.376 M 268.328 232.885 C 258.376 234.142, 254.638 235.018, 253.033 236.471 C 250.917 238.386, 250.909 238.575, 251.204 284.786 L 251.500 331.178 253.793 333.034 C 256.626 335.327, 260.384 335.804, 279.934 336.353 L 295.368 336.786 298.184 333.970 L 301 331.154 301 284.477 L 301 237.800 297.600 234.400 C 294.412 231.212, 293.804 231.007, 287.850 231.111 C 284.358 231.172, 275.573 231.970, 268.328 232.885 M 216.250 241.220 C 212.166 243.190, 214.605 250, 219.394 250 C 224.762 250, 226.968 244.492, 222.777 241.557 C 220.223 239.767, 219.356 239.723, 216.250 241.220 M 174.500 244.079 C 152.290 245.855, 151.485 246.169, 154.453 251.910 L 156.051 255 164.776 254.916 C 183.088 254.738, 187.777 253.138, 191.621 245.750 L 193.051 243 188.776 243.140 C 186.424 243.217, 180 243.640, 174.500 244.079 M 374 257.704 C 371.337 258.638, 370 261.284, 370 265.620 C 370 271.388, 371.967 273.182, 377.871 272.800 L 382.500 272.500 382.794 266.945 C 383.024 262.603, 382.696 261.045, 381.294 259.813 C 379.106 257.891, 376.016 256.997, 374 257.704 M 171 260.014 C 161.375 260.347, 153.387 260.706, 153.250 260.810 C 153.113 260.915, 153 261.633, 153 262.406 C 153 263.295, 152.302 263.630, 151.102 263.316 C 148.206 262.559, 145 264.738, 145 267.464 C 145 270.046, 147.356 273, 149.416 273 C 151.167 273, 154 269.706, 154 267.671 C 154 264.604, 155.869 265.953, 156.187 269.250 C 156.494 272.438, 156.605 272.506, 162 272.831 C 165.025 273.012, 171.733 272.852, 176.907 272.475 L 186.314 271.790 191.157 266.739 C 197.100 260.541, 197.334 258.928, 192.250 259.204 C 190.188 259.316, 180.625 259.680, 171 260.014 M 271.250 262.706 C 270.012 262.944, 269 263.605, 269 264.174 C 269 265.430, 285.011 264.261, 286.450 262.899 C 287.402 261.998, 275.700 261.849, 271.250 262.706 M 268.543 271.931 C 267.743 273.224, 269.048 273.822, 272 273.515 C 273.375 273.372, 277.313 273.198, 280.750 273.128 C 284.188 273.057, 287 272.550, 287 272 C 287 270.723, 269.330 270.657, 268.543 271.931 M 173.500 278.045 C 164.700 278.421, 156.713 278.790, 155.750 278.865 C 154.787 278.939, 154 279.684, 154 280.519 C 154 281.624, 153.344 281.874, 151.593 281.434 C 147.782 280.477, 145 282.546, 145 286.335 C 145 291.957, 149.152 293.848, 153.015 289.985 C 154.454 288.546, 154.867 287.187, 154.458 285.235 L 153.886 282.500 155.408 285 C 156.244 286.375, 156.945 288.288, 156.965 289.250 C 156.997 290.833, 158.354 291, 171.152 291 L 185.304 291 190.652 285.652 C 196.944 279.361, 197.549 276.914, 192.750 277.181 C 190.963 277.280, 182.300 277.669, 173.500 278.045 M 275.750 284.743 C 264.690 285.230, 266.062 287, 277.500 287 C 285.278 287, 287 286.728, 287 285.500 C 287 284.661, 286.228 284.089, 285.250 284.201 C 284.288 284.312, 280.012 284.556, 275.750 284.743 M 171.710 296.749 C 152.508 297.070, 151.136 297.501, 154.411 302.176 C 155.285 303.424, 156 305.470, 156 306.723 C 156 308.992, 156.056 309, 171.035 309 C 183.182 309, 186.543 308.690, 188.531 307.387 C 191.020 305.757, 197 298.283, 197 296.803 C 197 296.361, 195.313 296.101, 193.250 296.225 C 191.188 296.349, 181.494 296.585, 171.710 296.749 M 269 298 C 269 298.593, 272.667 299, 278 299 C 283.333 299, 287 298.593, 287 298 C 287 297.407, 283.333 297, 278 297 C 272.667 297, 269 297.407, 269 298 M 145.571 302.571 C 143.465 304.678, 143.592 306.592, 146 309 C 148.408 311.408, 148.917 311.447, 151.777 309.443 C 154.195 307.750, 154.709 304.109, 152.800 302.200 C 151.117 300.517, 147.436 300.706, 145.571 302.571 M 269 307 C 269 307.593, 272.667 308, 278 308 C 283.333 308, 287 307.593, 287 307 C 287 306.407, 283.333 306, 278 306 C 272.667 306, 269 306.407, 269 307 M 376 313 C 376 315.354, 376.634 315.509, 378.524 313.619 C 380.007 312.136, 379.490 311, 377.333 311 C 376.600 311, 376 311.900, 376 313 M 153.150 315.907 C 152.114 316.548, 152.399 317.800, 154.496 321.811 C 156.927 326.460, 157.530 326.957, 161.453 327.545 C 163.815 327.899, 170.559 328.034, 176.439 327.845 L 187.130 327.500 192.065 322.324 C 194.779 319.478, 197 316.778, 197 316.324 C 196.999 315.247, 154.867 314.846, 153.150 315.907 M 273.280 316.736 C 275.909 316.943, 279.959 316.940, 282.280 316.731 C 284.601 316.521, 282.450 316.352, 277.500 316.355 C 272.550 316.358, 270.651 316.530, 273.280 316.736 M 145.571 320.571 C 143.706 322.436, 143.517 326.117, 145.200 327.800 C 148.883 331.483, 155.375 326.313, 153.163 321.459 C 151.856 318.589, 148.004 318.139, 145.571 320.571 M 266.998 322.750 C 266.999 323.667, 269.668 324, 277 324 C 282.526 324, 287 323.582, 287 323.066 C 287 322.553, 282.499 321.990, 276.998 321.816 C 269.493 321.579, 266.996 321.812, 266.998 322.750 M 372.886 329.114 C 371.101 330.899, 370.843 332.093, 371.230 336.764 C 371.549 340.612, 372.252 342.711, 373.536 343.650 C 378.483 347.267, 382.574 343.012, 381.438 335.433 C 380.771 330.987, 378.200 327, 376 327 C 375.450 327, 374.049 327.951, 372.886 329.114 M 153 336.050 C 153 337.177, 153.664 339.383, 154.475 340.952 C 156.118 344.129, 157.284 344.387, 175.233 345.552 C 184.074 346.126, 185.284 345.987, 188.441 344.037 C 192.046 341.809, 197 336.534, 197 334.923 C 197 334.387, 187.781 334, 175 334 C 153.489 334, 153 334.046, 153 336.050 M 270.045 344.064 C 251.603 347.798, 241.513 370.265, 250.401 387.804 C 260.608 407.948, 287.374 412.878, 302.144 397.335 C 309.926 389.145, 312.943 377.151, 309.652 367.491 C 306.535 358.345, 297.145 348.727, 288.278 345.598 C 282.787 343.661, 275.191 343.022, 270.045 344.064 M 381.196 354.298 C 379.438 356.111, 378 357.911, 378 358.298 C 378 358.684, 379.913 358.993, 382.250 358.985 C 385.011 358.975, 386.025 358.668, 385.143 358.110 C 384.206 357.516, 383.998 356.284, 384.473 354.125 C 384.850 352.406, 384.986 351, 384.776 351 C 384.565 351, 382.954 352.484, 381.196 354.298 M 266.240 357.110 C 255.512 362.421, 252.976 377.209, 261.191 386.564 C 265.304 391.249, 268.924 393, 274.500 393 C 282.755 393, 288.749 387.881, 291.005 378.904 C 292.560 372.716, 290.980 367.091, 286.196 361.790 C 279.926 354.841, 273.750 353.393, 266.240 357.110 M 372.250 389.031 C 370.278 389.824, 370.002 390.649, 370.015 395.718 C 370.033 403.030, 371.654 406.397, 375.362 406.825 C 380.179 407.381, 382 404.698, 382 397.045 C 382 393.210, 381.493 389.893, 380.800 389.200 C 379.409 387.809, 375.485 387.731, 372.250 389.031 M 374 392.204 C 374 393.652, 373.727 395.548, 373.393 396.418 C 372.997 397.451, 373.337 398, 374.374 398 C 376.735 398, 377.622 393.194, 375.630 391.201 C 374.123 389.695, 374 389.771, 374 392.204" stroke="none" fill="#009779" fill-rule="evenodd"/>
</svg>